<svg xmlns="http://www.w3.org/2000/svg" xmlns:xlink="http://www.w3.org/1999/xlink" width="62.978" height="63" viewBox="0 0 62.978 63"><defs><linearGradient id="a" x1="0.5" x2="0.5" y2="1" gradientUnits="objectBoundingBox"><stop offset="0" stop-color="#c5933b"/><stop offset="0.485" stop-color="#e4c882"/><stop offset="1" stop-color="#c5933b"/></linearGradient></defs><g transform="translate(0.5 0.5)"><path d="M1076.438,1044.826a18.787,18.787,0,0,1-2.458-1.648,4.529,4.529,0,0,1-1.414-3.481q.007-25.847.008-51.694a5.06,5.06,0,0,1,5.225-5.17q19.121-.013,38.242,0a5.1,5.1,0,0,1,5.361,5.194c.051,9.322.016,18.644.026,27.965,0,1.187-.631,1.458-1.7,1.478a12.614,12.614,0,0,0,.043,25.228,12.5,12.5,0,0,0,12.634-12.3,12.257,12.257,0,0,0-6.278-11.245c-.205-.127-.532-.187-.611-.363a10.673,10.673,0,0,1-.43-1.436c.488-.121,1.091-.49,1.444-.324a11.7,11.7,0,0,1,5.314,4.614,50.36,50.36,0,0,1,2.442,5.6c.089.21.173.422.26.633v4.359a2.674,2.674,0,0,0-.234.529,14.513,14.513,0,0,1-8.518,10.788,34.422,34.422,0,0,1-3.837,1.278h-4.116a38.7,38.7,0,0,1-5.891-2.348,14.483,14.483,0,0,1-6.563-15.331,14.713,14.713,0,0,1,12.647-11.651c.4-.046.79-.122,1.267-.2v-1.251q0-12.651,0-25.3c0-2.711-1.088-3.8-3.814-3.8q-18.516-.005-37.032,0c-2.767,0-3.767,1.011-3.767,3.806q0,25.06,0,50.119c0,2.851.992,3.834,3.862,3.835q13.433,0,26.866,0c.282,0,.565,0,.847,0,1.619.034,2,.727,1.168,2.119Z" transform="translate(-1072.566 -982.827)" fill="url(#a)"/><path d="M1122.034,1045.326h-4.289l-.087-.034c-.609-.237-1.248-.454-1.866-.664a21.379,21.379,0,0,1-4.1-1.721,14.983,14.983,0,0,1-6.795-15.87,15.758,15.758,0,0,1,4.667-8.191,14.857,14.857,0,0,1,8.41-3.847c.254-.029.5-.072.8-.121l.029,0V1007.2q0-9.229,0-18.457c0-2.435-.868-3.3-3.315-3.3q-18.516-.005-37.031,0a3.515,3.515,0,0,0-2.566.707,3.611,3.611,0,0,0-.7,2.6c0,16.628,0,33.491,0,50.119a3.633,3.633,0,0,0,.707,2.632,3.7,3.7,0,0,0,2.655.7l12.6,0h14.263l.53,0c.125,0,.23,0,.328,0,1.01.021,1.642.285,1.93.807s.177,1.2-.343,2.068l-.146.243h-31.423l-.125-.082c-.247-.162-.51-.32-.764-.473a10.779,10.779,0,0,1-1.757-1.224,5.046,5.046,0,0,1-1.576-3.85q0-10.683,0-21.366c0-9.94,0-20.218.006-30.328a5.641,5.641,0,0,1,1.638-4.055,5.759,5.759,0,0,1,4.087-1.615c6.081,0,12.272-.006,18.927-.006,6.088,0,12.406,0,19.316.005a5.611,5.611,0,0,1,5.861,5.691c.034,6.138.03,12.377.026,18.411,0,3.132,0,6.371,0,9.556,0,1.717-1.17,1.959-2.191,1.979a12.114,12.114,0,0,0,.035,24.228h.045a11.964,11.964,0,0,0,12.087-11.811,11.82,11.82,0,0,0-6.041-10.811,1.5,1.5,0,0,0-.173-.08,1.063,1.063,0,0,1-.632-.506,6.783,6.783,0,0,1-.348-1.1c-.036-.14-.069-.273-.106-.4l-.141-.5.5-.125a4.083,4.083,0,0,0,.428-.147,2.7,2.7,0,0,1,.925-.234.987.987,0,0,1,.423.09,12.126,12.126,0,0,1,5.534,4.816,28.625,28.625,0,0,1,1.774,3.929c.223.569.454,1.158.7,1.724.063.148.124.3.183.443l.08.2.037.091v4.566l-.045.1c-.031.069-.065.132-.1.193a1.127,1.127,0,0,0-.1.23A15.024,15.024,0,0,1,1126,1044a19.036,19.036,0,0,1-2.686.933c-.4.116-.811.237-1.207.366Zm-4.1-1h3.944c.386-.125.779-.239,1.16-.351a18.018,18.018,0,0,0,2.546-.881,14.071,14.071,0,0,0,8.239-10.434,1.833,1.833,0,0,1,.2-.5l.026-.049v-4.145l-.044-.108c-.057-.141-.116-.286-.176-.426-.247-.58-.481-1.176-.706-1.751a27.889,27.889,0,0,0-1.708-3.793,11.145,11.145,0,0,0-5.082-4.406h-.01a2.215,2.215,0,0,0-.57.169l-.06.023a6.306,6.306,0,0,0,.255.838c.038.018.093.042.133.058a2.191,2.191,0,0,1,.313.152,12.763,12.763,0,0,1,6.515,11.679,12.907,12.907,0,0,1-3.9,9.08,13.067,13.067,0,0,1-9.185,3.714h-.049a13.093,13.093,0,0,1-9.324-22.279,13.289,13.289,0,0,1,9.274-3.95c1.036-.019,1.211-.261,1.21-.978,0-3.186,0-6.425,0-9.558,0-6.033.007-12.271-.026-18.405a4.592,4.592,0,0,0-4.861-4.7c-6.91,0-13.228-.005-19.316-.005-6.654,0-12.845,0-18.926.006a4.548,4.548,0,0,0-4.726,4.67c-.006,10.109-.006,20.387-.006,30.327q0,10.683,0,21.367a4.022,4.022,0,0,0,1.251,3.112,9.884,9.884,0,0,0,1.6,1.105c.221.133.448.269.671.412h30.549c.288-.557.221-.771.19-.827s-.217-.274-1.076-.292c-.189,0-.379,0-.569,0h-14.53l-12.6,0a4.5,4.5,0,0,1-3.359-.993,4.436,4.436,0,0,1-1-3.341c0-16.628,0-33.491,0-50.119a4.479,4.479,0,0,1,.991-3.3,4.386,4.386,0,0,1,3.276-1q18.516-.005,37.032,0a3.714,3.714,0,0,1,4.314,4.3q0,9.229,0,18.458v8.523l-.422.067c-.155.024-.3.049-.442.073-.291.049-.567.1-.846.128a14.2,14.2,0,0,0-12.217,11.265,14.03,14.03,0,0,0,6.331,14.792,20.631,20.631,0,0,0,3.91,1.633C1116.712,1043.885,1117.331,1044.1,1117.932,1044.326Z" transform="translate(-1072.566 -982.827)" fill="rgba(0,0,0,0)"/><path d="M1129.622,1018.7q7.262,0,14.523,0a3.155,3.155,0,0,1,3.524,3.39c.047,1.451.018,2.905.006,4.358-.006.736-.159,1.437-1.088,1.428-.946-.009-1.024-.714-1.019-1.454.011-1.412-.006-2.825,0-4.237.007-.954-.424-1.38-1.4-1.379q-14.645.021-29.289,0c-.915,0-1.315.39-1.3,1.314.026,2.179.033,4.359,0,6.538-.018,1.074.519,1.421,1.493,1.411,1.734-.018,3.469,0,5.2,0h22.148a2.7,2.7,0,0,1,1.076.039c.385.184.96.588.939.857a1.788,1.788,0,0,1-.823,1.116c-.293.189-.781.094-1.183.094q-13.434.005-26.869,0c-3.018,0-4.107-1.079-4.108-4.053,0-2.018-.013-4.036,0-6.054a3.1,3.1,0,0,1,3.4-3.368Q1122.239,1018.694,1129.622,1018.7Z" transform="translate(-1105.151 -1012.889)" fill="url(#a)"/><path d="M1121.136,1018.2l8.485,0h8.366c2.393,0,4.35,0,6.158,0a3.639,3.639,0,0,1,4.023,3.874c.039,1.2.026,2.426.014,3.607q0,.386-.008.772a2.527,2.527,0,0,1-.262,1.233,1.4,1.4,0,0,1-1.309.691h-.022c-1.529-.014-1.518-1.427-1.514-1.958.006-.715,0-1.443,0-2.146,0-.685,0-1.393,0-2.091a.969.969,0,0,0-.179-.685,1.017,1.017,0,0,0-.715-.19c-4.836.007-9.81.01-15.211.01-4.378,0-8.985,0-14.084-.007a.646.646,0,0,0-.8.808c.03,2.537.029,4.619,0,6.552a.988.988,0,0,0,.178.7,1.108,1.108,0,0,0,.775.2h.035c.623-.006,1.293-.009,2.11-.009l1.551,0,1.548,0h22.148c.088,0,.187-.008.292-.016.121-.01.245-.02.374-.02a1.409,1.409,0,0,1,.626.124c.214.1,1.277.647,1.222,1.348a2.262,2.262,0,0,1-1.051,1.5,1.508,1.508,0,0,1-.82.2c-.119,0-.237-.006-.35-.013s-.2-.011-.282-.011q-13.436.005-26.87,0a4.808,4.808,0,0,1-3.536-1.056,4.676,4.676,0,0,1-1.071-3.5q0-.844,0-1.689c0-1.432-.006-2.912.006-4.369a3.588,3.588,0,0,1,3.895-3.864C1116.694,1018.2,1118.69,1018.2,1121.136,1018.2Zm8.485,1-8.485,0c-2.446,0-4.441,0-6.28,0a2.618,2.618,0,0,0-2.9,2.873c-.012,1.452-.009,2.93-.006,4.359q0,.845,0,1.69a3.8,3.8,0,0,0,.774,2.785,3.939,3.939,0,0,0,2.834.767q13.435,0,26.868,0c.114,0,.228.006.339.012s.2.011.295.011a.586.586,0,0,0,.279-.038,1.543,1.543,0,0,0,.578-.659,2.328,2.328,0,0,0-.639-.443.481.481,0,0,0-.195-.026c-.088,0-.188.008-.293.017s-.244.02-.372.02h-22.149l-1.551,0-1.549,0c-.813,0-1.48,0-2.1.009h-.046a1.985,1.985,0,0,1-1.487-.5,1.88,1.88,0,0,1-.465-1.421c.031-1.923.032-4,0-6.524a1.6,1.6,0,0,1,1.8-1.82c5.1,0,9.708.007,14.086.007,5.4,0,10.374,0,15.205-.01h.006a1.906,1.906,0,0,1,1.424.486,1.864,1.864,0,0,1,.47,1.4c-.005.693,0,1.4,0,2.081,0,.706,0,1.437,0,2.156-.007.905.165.947.523.95h.012c.29,0,.563,0,.571-.933q0-.387.008-.773c.012-1.171.025-2.381-.013-3.564-.063-1.953-1.052-2.9-3.025-2.906-1.807,0-3.764,0-6.157,0Z" transform="translate(-1105.151 -1012.889)" fill="rgba(0,0,0,0)"/><path d="M1197,1132.133c-.807,0-1.616.039-2.42-.009a2.6,2.6,0,0,1-2.52-2.586c-.039-1.048-.022-2.1-.008-3.148a2.722,2.722,0,0,1,2.737-2.914c1.449-.072,2.906-.063,4.357-.007a2.736,2.736,0,0,1,2.828,2.949c.017,1.009.025,2.019-.008,3.027a2.611,2.611,0,0,1-2.667,2.69c-.765.033-1.533.006-2.3.006Zm.058-6.553c-3.314.052-2.854-.491-2.895,2.859,0,.2.015.4,0,.6-.058.727.288,1.024,1,1.011,1.006-.018,2.013,0,3.019,0,1.689,0,1.7,0,1.691-1.645C1199.85,1125.1,1200.231,1125.628,1197.062,1125.579Z" transform="translate(-1172.68 -1100.643)" fill="url(#a)"/><path d="M1198.44,1132.652c-.242,0-.487,0-.724-.005s-.476-.005-.713-.005h-.5v0l-.245,0c-.249,0-.506.008-.76.008-.362,0-.662-.008-.944-.025a3.1,3.1,0,0,1-2.99-3.066c-.038-1.032-.023-2.077-.009-3.087v-.087a3.522,3.522,0,0,1,.873-2.4,3.329,3.329,0,0,1,2.339-1.008c.7-.035,1.43-.052,2.184-.052.709,0,1.434.015,2.217.045a3.418,3.418,0,0,1,2.411.988,3.562,3.562,0,0,1,.9,2.452c.016.963.027,2-.008,3.052a3.118,3.118,0,0,1-3.145,3.173C1199.06,1132.647,1198.779,1132.652,1198.44,1132.652Zm-.936-1.008.224,0c.234,0,.476.005.713.005.324,0,.591-.005.841-.016a2.125,2.125,0,0,0,2.189-2.207c.034-1.031.024-2.052.008-3a2.246,2.246,0,0,0-2.348-2.458c-.77-.03-1.482-.044-2.178-.044-.737,0-1.455.017-2.134.051a2.223,2.223,0,0,0-2.262,2.422v.087c-.014,1-.029,2.029.009,3.035a2.1,2.1,0,0,0,2.05,2.105c.262.016.543.023.885.023.247,0,.5,0,.745-.008s.506-.008.76-.008h.5Zm-2.384-1.091a1.474,1.474,0,0,1-1.133-.413,1.442,1.442,0,0,1-.319-1.139c.008-.1.005-.21,0-.327,0-.078,0-.16,0-.244.005-.407,0-.752,0-1.057-.008-1.049-.011-1.576.355-1.946a1.889,1.889,0,0,1,1.411-.354c.135,0,.283,0,.447,0,.2,0,.419,0,.664,0,.176,0,.343,0,.509,0h.016c.152,0,.3,0,.465,0,.239,0,.456,0,.648,0,.161,0,.307,0,.439,0a1.851,1.851,0,0,1,1.391.354c.374.377.37.931.361,2.036,0,.274,0,.584,0,.938.006.92.009,1.427-.346,1.786s-.885.361-1.844.363h-.124c-.313,0-.627,0-.94,0s-.623,0-.935,0c-.386,0-.708,0-1.012.008Zm-.387-4.419a4.806,4.806,0,0,0-.065,1.233c0,.309,0,.66,0,1.077,0,.066,0,.135,0,.207a4.032,4.032,0,0,1-.005.431.577.577,0,0,0,.057.381.618.618,0,0,0,.4.091h.033c.31-.005.637-.008,1.029-.008q.47,0,.94,0c.312,0,.623,0,.935,0h.122a4.629,4.629,0,0,0,1.134-.068,4.376,4.376,0,0,0,.057-1.074c0-.362,0-.676,0-.953a5.01,5.01,0,0,0-.071-1.323,2.056,2.056,0,0,0-.681-.06c-.129,0-.27,0-.427,0-.194,0-.415,0-.66,0-.163,0-.318,0-.473,0s-.338,0-.517,0c-.251,0-.477,0-.676,0-.16,0-.3,0-.436,0A2.193,2.193,0,0,0,1194.732,1126.135Z" transform="translate(-1172.68 -1100.643)" fill="rgba(0,0,0,0)"/><path d="M1277.88,1132.173c-.684,0-1.368.017-2.051,0a2.728,2.728,0,0,1-2.888-2.752,27.125,27.125,0,0,1,0-3.136,2.8,2.8,0,0,1,2.893-2.789c1.406-.05,2.816-.049,4.222,0a2.745,2.745,0,0,1,2.867,2.674,21.415,21.415,0,0,1,.013,3.255,2.707,2.707,0,0,1-2.886,2.748C1279.328,1132.191,1278.6,1132.173,1277.88,1132.173Zm.106-6.568c-3.36.037-2.9-.438-2.937,2.95,0,.121.011.242,0,.362-.087.825.283,1.184,1.108,1.165,1.044-.024,2.089,0,3.134,0,1.5-.007,1.57-.067,1.566-1.556C1280.847,1125.193,1281.175,1125.631,1277.985,1125.6Z" transform="translate(-1240.436 -1100.669)" fill="url(#a)"/><path d="M1279.241,1132.68c-.228,0-.456,0-.684,0q-.657-.005-1.314,0c-.215,0-.43,0-.645,0-.3,0-.549,0-.783-.01a3.212,3.212,0,0,1-3.372-3.223,27.661,27.661,0,0,1,0-3.194,3.441,3.441,0,0,1,1-2.329,3.527,3.527,0,0,1,2.376-.93c.7-.025,1.414-.037,2.118-.037s1.43.013,2.139.038a3.231,3.231,0,0,1,3.347,3.131,21.965,21.965,0,0,1,.014,3.332,3.2,3.2,0,0,1-3.37,3.214C1279.819,1132.677,1279.557,1132.68,1279.241,1132.68Zm-1.361-1.007c.228,0,.456,0,.684,0s.451,0,.677,0c.306,0,.559,0,.8-.01a2.208,2.208,0,0,0,2.4-2.282,20.972,20.972,0,0,0-.012-3.179,2.25,2.25,0,0,0-2.387-2.217c-.7-.025-1.405-.037-2.1-.037s-1.393.012-2.083.037a2.291,2.291,0,0,0-2.412,2.319,26.67,26.67,0,0,0,0,3.078,2.237,2.237,0,0,0,2.4,2.281c.224.007.464.01.753.01.212,0,.425,0,.637,0S1277.665,1131.673,1277.88,1131.673Zm-1.786-1.091a1.4,1.4,0,0,1-1.544-1.718,1.376,1.376,0,0,0,0-.165c0-.05,0-.1,0-.149,0-.405,0-.752,0-1.059-.009-1.089-.014-1.635.366-2.018a2.068,2.068,0,0,1,1.544-.372l.451,0c.3,0,.659.006,1.072,0h.01c.37,0,.692,0,.973,0l.461,0a2.064,2.064,0,0,1,1.551.38c.4.4.394,1,.385,2.2,0,.247,0,.527,0,.837,0,.769,0,1.325-.366,1.69s-.924.363-1.7.367c-.4,0-.79,0-1.184,0-.292,0-.585,0-.877,0-.409,0-.747,0-1.063.011Zm.364-4.482a2.248,2.248,0,0,0-.835.077,4.581,4.581,0,0,0-.076,1.305c0,.311.005.663,0,1.078,0,.036,0,.073,0,.109a2.136,2.136,0,0,1-.006.3.444.444,0,0,0,.55.612h.05c.324-.007.669-.011,1.086-.011.294,0,.589,0,.883,0,.391,0,.782,0,1.174,0a3.757,3.757,0,0,0,1-.078,3.624,3.624,0,0,0,.07-.977c0-.315,0-.6,0-.847a4.7,4.7,0,0,0-.094-1.491,2.035,2.035,0,0,0-.841-.085l-.451,0c-.28,0-.61.006-.986,0-.419,0-.778,0-1.087,0Z" transform="translate(-1240.436 -1100.669)" fill="rgba(0,0,0,0)"/><path d="M1116.416,1132.121c-.764,0-1.529.027-2.291-.006a2.677,2.677,0,0,1-2.706-2.782c-.029-1-.027-2.011,0-3.016a2.738,2.738,0,0,1,2.674-2.854,42.694,42.694,0,0,1,4.581,0,2.675,2.675,0,0,1,2.685,2.82c.036,1.044.039,2.092-.006,3.136a2.615,2.615,0,0,1-2.764,2.7c-.723.026-1.447,0-2.171,0Zm0-2.09c3.247-.053,2.83.477,2.866-2.912,0-.161-.007-.323,0-.484.019-.743-.292-1.115-1.085-1.086-1.007.037-2.016.008-3.024.009-1.627,0-1.649,0-1.627,1.588C1113.594,1130.431,1113.015,1129.991,1116.421,1130.032Z" transform="translate(-1105.106 -1100.623)" fill="url(#a)"/><path d="M1117.773,1132.634c-.228,0-.455,0-.683,0s-.449,0-.674,0h-.484l-.225,0c-.235,0-.479.005-.719.005-.339,0-.62-.005-.885-.017a3.174,3.174,0,0,1-3.184-3.267c-.028-.974-.029-1.969,0-3.043a3.49,3.49,0,0,1,.88-2.326,3.254,3.254,0,0,1,2.266-1.015c.754-.042,1.532-.064,2.312-.064.76,0,1.542.02,2.322.061a3.177,3.177,0,0,1,3.159,3.3c.039,1.133.037,2.171-.006,3.174a3.11,3.11,0,0,1-3.246,3.183C1118.356,1132.63,1118.091,1132.634,1117.773,1132.634Zm-.873-1.006.2,0c.224,0,.449,0,.674,0,.307,0,.56,0,.8-.012a2.118,2.118,0,0,0,2.282-2.226c.042-.977.044-1.99.006-3.1a2.171,2.171,0,0,0-2.211-2.338c-.764-.039-1.528-.059-2.271-.059-.761,0-1.52.021-2.256.062a2.241,2.241,0,0,0-2.2,2.367c-.027,1.056-.026,2.034,0,2.989a2.181,2.181,0,0,0,2.228,2.3c.25.011.517.016.842.016.235,0,.476,0,.708-.005s.479-.005.719-.005h.484Zm1.066-1.094-.417,0c-.18,0-.378,0-.6,0-.182,0-.353,0-.523,0h-.014c-.4,0-.748,0-1.045,0h-.376c-.782,0-1.281-.025-1.618-.368-.357-.363-.348-.875-.333-1.805.005-.325.012-.729.005-1.2-.012-.862-.019-1.382.331-1.738s.864-.356,1.8-.358h.074c.3,0,.6,0,.892.005s.59,0,.884,0c.448,0,.816-.006,1.157-.019l.1,0a1.494,1.494,0,0,1,1.115.4,1.574,1.574,0,0,1,.384,1.2c0,.079,0,.162,0,.249s0,.152,0,.227c0,.385,0,.717,0,1.01.006,1.105.009,1.66-.368,2.039A1.926,1.926,0,0,1,1117.965,1130.534Zm-1.014-1.006c.223,0,.424,0,.607,0l.407,0a2.172,2.172,0,0,0,.743-.066,4.831,4.831,0,0,0,.077-1.328c0-.3,0-.634,0-1.026,0-.066,0-.133,0-.2,0-.094,0-.191,0-.291a.713.713,0,0,0-.1-.475.676.676,0,0,0-.466-.1c-.354.013-.733.019-1.194.019-.3,0-.6,0-.892-.005s-.59,0-.883,0h-.073a4.733,4.733,0,0,0-1.083.061,4.448,4.448,0,0,0-.045,1.02c.007.49,0,.9-.006,1.235a4.3,4.3,0,0,0,.047,1.087,3.556,3.556,0,0,0,.9.07c.249,0,.542,0,.882,0,.192,0,.37,0,.544,0S1116.766,1129.528,1116.952,1129.528Z" transform="translate(-1105.106 -1100.623)" fill="rgba(0,0,0,0)"/><path d="M1197.073,1277.019c.807,0,1.616-.045,2.419.01a2.576,2.576,0,0,1,2.5,2.6c.04,1.048.029,2.1.01,3.147a2.675,2.675,0,0,1-2.633,2.882,37.629,37.629,0,0,1-4.6.009,2.719,2.719,0,0,1-2.694-2.954c-.012-.969-.017-1.937,0-2.906a2.629,2.629,0,0,1,2.694-2.793c.764-.038,1.532-.006,2.3-.006Zm-.05,6.563c.524,0,1.053-.042,1.572.009,1.026.1,1.384-.366,1.313-1.344a14.956,14.956,0,0,1,0-2.056c.056-.862-.354-1.143-1.153-1.118-.967.029-1.936,0-2.9.006-1.656,0-1.669.006-1.656,1.682C1194.218,1284.012,1193.8,1283.542,1197.023,1283.581Z" transform="translate(-1172.704 -1229.328)" fill="url(#a)"/><path d="M1195.638,1276.493c.242,0,.487,0,.724.006s.475.006.711.006h.5v.01l.245,0c.249,0,.506-.009.761-.009.363,0,.664.009.947.028a3.077,3.077,0,0,1,2.965,3.077c.041,1.076.029,2.162.01,3.176a3.18,3.18,0,0,1-3.1,3.371c-.771.05-1.568.076-2.369.076-.749,0-1.519-.022-2.288-.066a3.217,3.217,0,0,1-3.165-3.448c-.01-.863-.019-1.885,0-2.922a3.135,3.135,0,0,1,3.169-3.282C1195.015,1276.5,1195.3,1276.493,1195.638,1276.493Zm.935,1.009-.224,0c-.234,0-.475-.006-.711-.006-.324,0-.59.006-.839.018a2.133,2.133,0,0,0-2.219,2.3c-.02,1.022-.012,2.035,0,2.89a2.235,2.235,0,0,0,2.223,2.461c.75.043,1.5.065,2.23.065.779,0,1.554-.025,2.3-.074a2.174,2.174,0,0,0,2.165-2.392c.019-1,.03-2.068-.009-3.119a2.068,2.068,0,0,0-2.033-2.117c-.26-.018-.539-.026-.879-.026-.246,0-.5,0-.744.009s-.507.009-.762.009h-.5Zm2.273,1.069a1.571,1.571,0,0,1,1.211.427,1.554,1.554,0,0,1,.348,1.225,14.5,14.5,0,0,0,0,1.988,1.845,1.845,0,0,1-.38,1.455,1.532,1.532,0,0,1-1.174.438c-.1,0-.2-.005-.307-.016-.159-.016-.332-.023-.544-.023-.157,0-.313,0-.477.008s-.333.008-.5.008h-.006c-.406,0-.753,0-1.051,0l-.43,0a1.985,1.985,0,0,1-1.489-.363c-.372-.375-.367-.909-.356-1.973,0-.286.006-.61,0-.985-.007-.942-.011-1.461.347-1.823s.871-.36,1.808-.363h.141c.285,0,.57,0,.855,0s.565,0,.847,0c.4,0,.736,0,1.047-.014Zm.007,4.533a.65.65,0,0,0,.442-.12,1.024,1.024,0,0,0,.115-.7,15.478,15.478,0,0,1,0-2.125.712.712,0,0,0-.08-.476.725.725,0,0,0-.482-.111h-.077c-.321.01-.663.014-1.077.014-.285,0-.57,0-.855,0s-.565,0-.847,0h-.138a.831.831,0,0,0-1.158,1.178c0,.384,0,.713,0,1a4.638,4.638,0,0,0,.067,1.259,2.315,2.315,0,0,0,.779.068l.42,0c.3,0,.656-.006,1.069,0,.156,0,.311,0,.475-.008s.333-.008.5-.008c.245,0,.449.009.641.027C1198.718,1283.1,1198.788,1283.1,1198.852,1283.1Z" transform="translate(-1172.704 -1229.328)" fill="rgba(0,0,0,0)"/><path d="M1197.03,1209.016c-.846,0-1.7.066-2.537-.015a2.588,2.588,0,0,1-2.441-2.66q-.043-1.633,0-3.268a2.483,2.483,0,0,1,2.224-2.59,38.182,38.182,0,0,1,5.427-.008,2.469,2.469,0,0,1,2.256,2.559c.037,1.048.03,2.1.009,3.146a2.659,2.659,0,0,1-2.762,2.864c-.723.046-1.451.008-2.177.008Zm-.03-6.563c-3.278.03-2.8-.368-2.841,2.82,0,.04,0,.081,0,.121.006,1.583.006,1.584,1.65,1.588q1.211,0,2.421,0c1.618,0,1.648-.018,1.634-1.607C1199.835,1202.05,1200.29,1202.488,1197,1202.453Z" transform="translate(-1172.673 -1165.132)" fill="url(#a)"/><path d="M1198.391,1209.568c-.231,0-.464,0-.689-.008s-.45-.007-.672-.007h-.5v-.03l-.277.006c-.262.006-.532.013-.8.013-.386,0-.706-.014-1.007-.043a3.083,3.083,0,0,1-2.893-3.145c-.029-1.1-.029-2.208,0-3.295a2.972,2.972,0,0,1,2.687-3.075c.921-.068,1.862-.1,2.8-.1.9,0,1.806.031,2.7.094a2.77,2.77,0,0,1,1.962.974,3.368,3.368,0,0,1,.758,2.066c.041,1.145.026,2.3.009,3.174a3.409,3.409,0,0,1-.87,2.384,3.461,3.461,0,0,1-2.36.97C1198.985,1209.56,1198.715,1209.568,1198.391,1209.568Zm-.861-1.01.189,0c.221,0,.449.007.672.007.3,0,.552-.007.784-.022a2.162,2.162,0,0,0,2.294-2.375c.018-.917.031-2-.009-3.119a1.961,1.961,0,0,0-1.791-2.078c-.873-.061-1.758-.091-2.632-.091-.911,0-1.827.033-2.724.1a1.981,1.981,0,0,0-1.761,2.105c-.029,1.069-.03,2.159,0,3.241a2.081,2.081,0,0,0,1.99,2.176c.268.026.557.038.911.038.256,0,.521-.006.777-.013s.532-.013.8-.013h.5Zm-.468-1.073h-.01l-1.244,0c-.954,0-1.433,0-1.784-.342s-.36-.842-.364-1.744v-.027c0-.034,0-.068,0-.1.005-.4,0-.746,0-1.048-.009-.981-.014-1.522.355-1.894.344-.347.867-.373,1.625-.373l.4,0c.276,0,.594,0,.957,0h.01c.383,0,.714,0,1,0l.413,0c.735,0,1.243.026,1.588.374.378.382.372.921.36,2,0,.3-.007.648,0,1.05.007.866.012,1.388-.344,1.748s-.865.361-1.789.364Zm-2.342-1.065a4.76,4.76,0,0,0,1.09.063q1.209,0,2.418,0a4.4,4.4,0,0,0,1.08-.068,4.278,4.278,0,0,0,.056-1.035c0-.412,0-.761,0-1.07a4.48,4.48,0,0,0-.072-1.282,3.035,3.035,0,0,0-.876-.077l-.406,0c-.291,0-.626,0-1.014,0-.368,0-.689,0-.968,0l-.393,0a3.25,3.25,0,0,0-.915.077,4.345,4.345,0,0,0-.065,1.181c0,.307.006.655,0,1.07,0,.028,0,.057,0,.085v.028A4.5,4.5,0,0,0,1194.72,1206.419Z" transform="translate(-1172.673 -1165.132)" fill="rgba(0,0,0,0)"/><path d="M1116.345,1285.61c-.726,0-1.456.049-2.178-.01a2.788,2.788,0,0,1-2.74-2.939c-.019-.968-.023-1.938,0-2.906a2.657,2.657,0,0,1,2.687-2.812c1.531-.053,3.067-.053,4.6,0a2.577,2.577,0,0,1,2.65,2.7c.043,1.047.042,2.1,0,3.147a2.71,2.71,0,0,1-2.724,2.808C1117.882,1285.66,1117.112,1285.611,1116.345,1285.61Zm-.028-2.106c.682,0,1.365.022,2.046,0,1.232-.049,1.031-1.048.894-1.7-.2-.945.907-2.432-.889-2.763a16.716,16.716,0,0,0-3-.037c-1.808,0-1.821,0-1.807,1.761C1113.584,1283.862,1113.144,1283.48,1116.317,1283.5Z" transform="translate(-1105.118 -1229.253)" fill="url(#a)"/><path d="M1117.784,1286.13c-.248,0-.5-.005-.74-.01s-.468-.01-.7-.01h-.013c-.219,0-.445,0-.663.009s-.455.009-.684.009c-.328,0-.6-.01-.857-.031a3.3,3.3,0,0,1-3.2-3.427c-.022-1.089-.021-2.047,0-2.929a3.158,3.158,0,0,1,3.169-3.3c.77-.027,1.551-.04,2.322-.04s1.546.014,2.311.04a3.082,3.082,0,0,1,3.132,3.182c.042,1.028.044,2.1,0,3.186a3.211,3.211,0,0,1-3.185,3.288C1118.413,1286.12,1118.128,1286.13,1117.784,1286.13Zm-1.452-1.02h.014c.241,0,.484.005.719.01s.481.01.719.01c.317,0,.578-.009.821-.028a2.209,2.209,0,0,0,2.263-2.327c.038-1.06.037-2.106,0-3.108a2.08,2.08,0,0,0-2.167-2.224c-.754-.026-1.52-.04-2.276-.04s-1.528.013-2.287.04a2.167,2.167,0,0,0-2.2,2.325c-.023.866-.023,1.809,0,2.883a2.282,2.282,0,0,0,2.281,2.45c.229.019.475.027.776.027.219,0,.445,0,.663-.009S1116.1,1285.11,1116.332,1285.11Zm1.26-1.1c-.214,0-.428,0-.642,0s-.422,0-.632,0h-.327c-.217,0-.415,0-.6,0l-.423,0c-.727,0-1.229-.026-1.568-.369-.366-.371-.36-.91-.348-1.891,0-.284.007-.605,0-.98-.008-.977-.012-1.515.358-1.889s.9-.376,1.948-.377c.294,0,.6-.014.9-.026s.633-.027.953-.027a6.76,6.76,0,0,1,1.242.1,1.593,1.593,0,0,1,1.381,1.027,2.785,2.785,0,0,1-.026,1.335,2.413,2.413,0,0,0-.068.79,2.123,2.123,0,0,1-.167,1.774,1.509,1.509,0,0,1-1.2.525C1118.146,1284.008,1117.895,1284.013,1117.591,1284.013Zm-1.6-1.01h.331c.21,0,.424,0,.639,0s.421,0,.632,0c.29,0,.528,0,.751-.013a.666.666,0,0,0,.447-.14c.141-.181.035-.683-.022-.953a3.046,3.046,0,0,1,.063-1.177c.155-.84.166-1.065-.553-1.2a5.8,5.8,0,0,0-1.061-.082c-.3,0-.609.013-.91.026s-.626.027-.941.027a4.464,4.464,0,0,0-1.241.082,4.377,4.377,0,0,0-.066,1.175c0,.385,0,.712,0,1a4.357,4.357,0,0,0,.06,1.175,3.156,3.156,0,0,0,.857.072l.416,0C1115.569,1283,1115.77,1283,1115.99,1283Z" transform="translate(-1105.118 -1229.253)" fill="rgba(0,0,0,0)"/><path d="M1116.294,1208.98c-.806,0-1.618.061-2.417-.014a2.632,2.632,0,0,1-2.489-2.632c-.045-1.128-.049-2.261,0-3.388a2.525,2.525,0,0,1,2.322-2.523,38.657,38.657,0,0,1,5.309,0,2.449,2.449,0,0,1,2.281,2.533c.052,1.127.053,2.26,0,3.387a2.552,2.552,0,0,1-2.476,2.62C1117.992,1209.042,1117.141,1208.981,1116.294,1208.98Zm.085-2.039c.562,0,1.125-.023,1.686,0,1.465.071,1.3-1.028,1.144-1.824-.184-.945.944-2.551-1.117-2.7-.958-.068-1.926-.013-2.889-.012-1.693,0-1.713,0-1.692,1.646C1113.552,1207.27,1112.99,1206.916,1116.379,1206.94Z" transform="translate(-1105.069 -1165.09)" fill="url(#a)"/><path d="M1117.877,1209.5c-.273,0-.547-.006-.813-.013s-.515-.012-.77-.012h-.018c-.241,0-.49.006-.73.011s-.5.012-.753.012c-.369,0-.674-.013-.961-.04a3.13,3.13,0,0,1-2.942-3.11c-.048-1.226-.047-2.348,0-3.431a3.288,3.288,0,0,1,.808-2.041,2.9,2.9,0,0,1,1.98-.958c.885-.06,1.783-.09,2.669-.09.906,0,1.817.032,2.708.094a2.818,2.818,0,0,1,1.971.948,3.313,3.313,0,0,1,.774,2.061c.052,1.135.054,2.29,0,3.432a3.275,3.275,0,0,1-.837,2.148,3.208,3.208,0,0,1-2.094.948C1118.578,1209.492,1118.26,1209.5,1117.877,1209.5Zm-1.6-1.025h.02c.265,0,.533.006.792.012s.529.012.79.012c.353,0,.642-.011.911-.035a2.052,2.052,0,0,0,2.021-2.144c.049-1.113.047-2.237,0-3.343a1.954,1.954,0,0,0-1.816-2.058c-.868-.061-1.756-.092-2.638-.092-.863,0-1.738.03-2.6.088a2.031,2.031,0,0,0-1.856,2.048c-.05,1.054-.051,2.148,0,3.345a2.131,2.131,0,0,0,2.036,2.154c.255.024.53.035.866.035.241,0,.49-.006.73-.011S1116.023,1208.48,1116.275,1208.48Zm1.921-1.032c-.051,0-.1,0-.156,0-.18-.009-.373-.013-.607-.013-.172,0-.35,0-.521,0s-.355,0-.534,0c-.346,0-.638,0-.9,0h-.38c-.853,0-1.395-.019-1.754-.384s-.356-.891-.34-1.835c.006-.33.012-.705.006-1.158-.011-.889-.018-1.425.339-1.787s.889-.364,1.852-.365c.287,0,.581-.006.866-.011.3-.005.614-.011.922-.011.436,0,.8.011,1.137.035a1.889,1.889,0,0,1,1.439.611,2.127,2.127,0,0,1,.2,1.733,2.515,2.515,0,0,0-.063.756,2.31,2.31,0,0,1-.212,1.914A1.583,1.583,0,0,1,1118.2,1207.448Zm-.763-1.017c.251,0,.459,0,.655.014l.107,0a.726.726,0,0,0,.519-.145c.173-.21.058-.8,0-1.087a3.131,3.131,0,0,1,.059-1.117c.063-.365.134-.778,0-.946a1.074,1.074,0,0,0-.722-.23c-.316-.022-.655-.033-1.067-.033-.3,0-.607.006-.9.011s-.587.01-.882.011a4.636,4.636,0,0,0-1.141.068,4.381,4.381,0,0,0-.052,1.072c.006.468,0,.867-.006,1.188a3.988,3.988,0,0,0,.055,1.119,3.741,3.741,0,0,0,1.039.083l.881,0h.4c.169,0,.346,0,.517,0S1117.255,1206.431,1117.434,1206.431Z" transform="translate(-1105.069 -1165.09)" fill="rgba(0,0,0,0)"/><path d="M1286.594,1044.287a5.816,5.816,0,0,1-.044,1.788c-.145.426-.684.718-1.049,1.069-.339-.367-.841-.683-.975-1.113a13.5,13.5,0,0,1-.069-1.787,5.667,5.667,0,0,0-.532-1.146c-.158-.379-.425-.806-.357-1.157a1.28,1.28,0,0,1,.827-.719c1.433-.409,2.2.221,2.211,1.742,0,.441,0,.882,0,1.323Z" transform="translate(-1249.37 -1031.659)" fill="url(#a)"/><path d="M1285.48,1047.859l-.347-.376c-.089-.1-.2-.194-.311-.3a2.4,2.4,0,0,1-.774-1.007,3.215,3.215,0,0,1-.079-1.163,3.421,3.421,0,0,0-.006-.694,1.845,1.845,0,0,0-.247-.543,4.272,4.272,0,0,1-.253-.489c-.031-.075-.069-.156-.109-.241a1.989,1.989,0,0,1-.278-1.2,1.749,1.749,0,0,1,1.181-1.1,3.367,3.367,0,0,1,.915-.141c.575,0,1.914.23,1.934,2.359,0,.305,0,.614,0,.912q0,.207,0,.415v.349q.005.083.011.168a3.615,3.615,0,0,1-.095,1.431,2.3,2.3,0,0,1-.842.987c-.123.1-.239.19-.334.282Zm-1.423-5.813a1.735,1.735,0,0,0,.2.58c.043.091.087.185.126.28a3.509,3.509,0,0,0,.2.376,2.6,2.6,0,0,1,.367.885,4.2,4.2,0,0,1,.016.906,2.464,2.464,0,0,0,.036.81,1.746,1.746,0,0,0,.489.562l.029.026.038-.03c.218-.173.465-.37.518-.526a2.874,2.874,0,0,0,.044-1.042c-.013-.191-.026-.388-.026-.586v-.5h.014c0-.27,0-.547,0-.818-.013-1.368-.658-1.368-.934-1.368a2.378,2.378,0,0,0-.641.1A.988.988,0,0,0,1284.057,1042.046Z" transform="translate(-1249.37 -1031.659)" fill="rgba(0,0,0,0)"/><path d="M1337.943,1220.1c0-.421-.122-.847.028-1.127a6.393,6.393,0,0,1,.99-1.137c.352.333,1.015.682,1,1-.056,1.119.511,1.513,1.438,1.821a4.4,4.4,0,0,1,1.382.944c.539.471.8,1.1.242,1.69s-1.141.377-1.682-.14a3.136,3.136,0,0,0-3.89-.561,2.5,2.5,0,0,0-1.138,1.725c-.034.41.727,1.084,1.267,1.3,1.035.416,2.179.549,3.256.875,2.06.624,2.96,1.684,3.013,3.439a3.913,3.913,0,0,1-2.74,3.746c-.721.271-1.17.52-1.089,1.408.065.72-.368,1.379-1.125,1.208-.392-.088-.684-.8-.933-1.273a1.409,1.409,0,0,1-.02-.688c-1.006-.626-1.95-1.136-2.8-1.77-.549-.409-.854-1.049-.234-1.661.58-.572,1.123-.344,1.683.155a3.318,3.318,0,0,0,4.116.458,2.338,2.338,0,0,0,.958-1.625c-.009-.442-.684-1.055-1.2-1.263a27.044,27.044,0,0,0-3.026-.8c-2.243-.619-3.281-1.7-3.353-3.43-.076-1.835.994-3.233,3.062-4C1337.375,1220.3,1337.6,1220.221,1337.943,1220.1Z" transform="translate(-1291.708 -1179.753)" fill="url(#a)"/><path d="M1338.935,1217.117l.371.351a4.424,4.424,0,0,0,.35.281c.407.306.829.623.8,1.1-.037.739.2,1.023,1.1,1.322a4.611,4.611,0,0,1,1.5,1l.051.044a1.886,1.886,0,0,1,.72,1.3,1.493,1.493,0,0,1-.442,1.111,1.456,1.456,0,0,1-1.079.516,1.92,1.92,0,0,1-1.314-.636,2.772,2.772,0,0,0-1.932-.859,2.882,2.882,0,0,0-1.374.376,2.037,2.037,0,0,0-.876,1.3,2.143,2.143,0,0,0,.953.818,12,12,0,0,0,1.854.519c.447.1.908.2,1.36.341,2.238.678,3.308,1.918,3.368,3.9a4.092,4.092,0,0,1-.781,2.535,4.91,4.91,0,0,1-2.283,1.694c-.705.265-.813.391-.767.895a1.76,1.76,0,0,1-.41,1.351,1.311,1.311,0,0,1-.979.43,1.571,1.571,0,0,1-.344-.039c-.564-.127-.877-.753-1.153-1.305-.039-.078-.077-.153-.113-.223a1.2,1.2,0,0,1-.108-.66c-.212-.129-.421-.255-.626-.377a22.778,22.778,0,0,1-1.944-1.253,1.761,1.761,0,0,1-.776-1.255,1.463,1.463,0,0,1,.49-1.163,1.491,1.491,0,0,1,1.057-.481,2.064,2.064,0,0,1,1.31.619,3.246,3.246,0,0,0,2.113.854,2.352,2.352,0,0,0,1.379-.43,1.874,1.874,0,0,0,.749-1.208,1.8,1.8,0,0,0-.886-.81,11.19,11.19,0,0,0-1.838-.509c-.371-.081-.755-.165-1.133-.269a5.863,5.863,0,0,1-2.716-1.43,3.578,3.578,0,0,1-1-2.462c-.085-2.053,1.118-3.648,3.388-4.49l.448-.164v-.012a1.739,1.739,0,0,1,.11-1.01,4.025,4.025,0,0,1,.76-.928c.107-.106.208-.207.3-.309Zm.523,1.766a3.408,3.408,0,0,0-.4-.335l-.053-.04,0,0a3.25,3.25,0,0,0-.585.693,1.5,1.5,0,0,0,0,.445c.012.135.027.288.027.446v.349l-.328.12-.35.128-.443.162a3.61,3.61,0,0,0-2.737,3.511c.063,1.521.956,2.409,2.986,2.969.351.1.722.178,1.08.256a12.119,12.119,0,0,1,2,.56c.623.254,1.494.992,1.509,1.717a2.826,2.826,0,0,1-1.167,2.041,3.347,3.347,0,0,1-1.961.616,4.2,4.2,0,0,1-2.779-1.108,1.162,1.162,0,0,0-.644-.365c-.039,0-.159,0-.354.193a.516.516,0,0,0-.194.382.83.83,0,0,0,.376.522,22.024,22.024,0,0,0,1.86,1.2c.294.176.6.358.907.55l.236.147v.278a1.563,1.563,0,0,1-.019.209,1.074,1.074,0,0,0-.015.255c.038.073.078.151.118.232a2.874,2.874,0,0,0,.489.779.344.344,0,0,0,.355-.092.79.79,0,0,0,.152-.586,1.726,1.726,0,0,1,1.411-1.921,3.418,3.418,0,0,0,2.417-3.263c-.047-1.556-.817-2.417-2.658-2.975-.417-.126-.861-.226-1.29-.322a12.937,12.937,0,0,1-2.008-.567c-.6-.241-1.642-1.051-1.579-1.806a2.983,2.983,0,0,1,1.4-2.124,3.866,3.866,0,0,1,1.85-.5,3.785,3.785,0,0,1,2.624,1.137,1.071,1.071,0,0,0,.622.359c.04,0,.163,0,.348-.2a.493.493,0,0,0,.175-.378.971.971,0,0,0-.38-.594l-.051-.045a3.842,3.842,0,0,0-1.159-.8A2.128,2.128,0,0,1,1339.459,1218.883Z" transform="translate(-1291.708 -1179.753)" fill="rgba(0,0,0,0)"/></g></svg>