<svg xmlns="http://www.w3.org/2000/svg" xmlns:xlink="http://www.w3.org/1999/xlink" width="62.902" height="63" viewBox="0 0 62.902 63"><defs><linearGradient id="a" x1="0.5" x2="0.5" y2="1" gradientUnits="objectBoundingBox"><stop offset="0" stop-color="#c5933b"/><stop offset="0.485" stop-color="#e4c882"/><stop offset="1" stop-color="#c5933b"/></linearGradient></defs><g transform="translate(0.5 0.5)"><path d="M565.408,1062.369c-2.3-1.281-2.494-2.144-1.618-4.711a10.981,10.981,0,0,0,.163-3.475,15.021,15.021,0,0,1,2.438-8.594,5.331,5.331,0,0,0,.832-3.85c-.327-2.966,1.255-4.673,4.25-4.693,2.824-.019,5.65-.045,8.473.015,1.122.023,1.529-.513,1.6-1.5.1-1.377.072-2.54-1.342-3.537-2.123-1.5-3.01-3.9-3.469-6.482-.412,0-.771.012-1.129,0a2.9,2.9,0,0,1-2.9-2.814,22.183,22.183,0,0,1,.027-3.628,3.355,3.355,0,0,1,.91-2,2.148,2.148,0,0,0,.735-1.879,24.276,24.276,0,0,1,.141-4.345,8.6,8.6,0,0,1,8.572-7.095c2.865-.028,5.729-.007,8.594-.006,3.1,0,4.28.933,4.987,3.942,3.235.78,4.066,1.847,4.067,5.222,0,.646.033,1.294-.008,1.937a2.724,2.724,0,0,0,.877,2.443,3.438,3.438,0,0,1,.762,2.2c.1,2.054.06,4.116.028,6.174a3.726,3.726,0,0,1-4.056,3.951,2.139,2.139,0,0,0-2.182,1.076,3.938,3.938,0,0,1-1.414,1.465c-1.726.9-1.282,2.405-1.179,3.789.058.783.625,1.1,1.458,1.091,2.784-.039,5.568-.021,8.352-.012,3.251.01,4.628,1.474,4.421,4.746a5.771,5.771,0,0,0,.907,3.858,15.6,15.6,0,0,1,2.442,8.6,10.968,10.968,0,0,0,.575,4.6c.579,1.271-.225,2.438-2,3.516Zm18.976-5.836c-.793-1.254-1.357-2.255-2.025-3.182a6.446,6.446,0,0,1,1.516-9.166,2.136,2.136,0,0,1,1.75-.287,2.228,2.228,0,0,1,.791,1.576,18.884,18.884,0,0,1,.023,3.143c-.038.787.326.963,1.017.929.626-.031,1.239.062,1.2-.891a20.721,20.721,0,0,1,.023-3.143c.063-.574.322-1.423.724-1.589a2.32,2.32,0,0,1,1.851.318,6.424,6.424,0,0,1,1.4,9.182c-.669.908-1.2,1.919-1.906,3.069h14.411c.292-5.192.591-10.3.86-15.419a1.915,1.915,0,0,0-1.93-2.161c-.361-.031-.726-.01-1.089-.01q-15.73,0-31.459,0c-1.889,0-2.561.7-2.49,2.565.019.484.081.965.107,1.448.121,2.175.284,4.349.311,6.525.005.411-.535.83-.823,1.245-.339-.379-.844-.708-.976-1.15a6.684,6.684,0,0,1-.041-1.847c-1.777,2.753-1.963,5.732-1.73,8.8h2.138c-.055-.768-.109-1.448-.152-2.128s.194-1.329.935-1.23c.357.047.789.685.9,1.128a12.618,12.618,0,0,1,.192,2.274ZM596.3,1020.99c-1.515-.277-2.015-1.35-1.877-2.889a21.548,21.548,0,0,0,.011-2.178c-.028-2.256-1.252-3.186-3.478-2.685a11.791,11.791,0,0,1-2.724.457,21.654,21.654,0,0,1-4.055-.45c-2.333-.491-3.52.366-3.527,2.711,0,.605-.044,1.215.009,1.815.146,1.663-.189,3-2.083,3.235-.394,5.977.882,9.177,5.3,11.261,3.032,1.43,6.987.88,8.937-1.108-.183-.02-.337-.042-.492-.054-1.721-.131-2.742-1.124-2.692-2.619a2.508,2.508,0,0,1,2.772-2.407c1.245.017,2.488.19,3.9.308Zm-.024-1.95c.431-.127.654-.218.885-.257,1.354-.228,1.837-.994,1.71-2.367-.122-1.319-.024-2.658-.027-3.988,0-1.914-.386-2.394-2.27-2.743a2.051,2.051,0,0,1-1.86-1.9,2.08,2.08,0,0,0-2.4-2.115c-3.143-.011-6.285-.025-9.428.005a6.668,6.668,0,0,0-6.638,6.476c-.063,1.61.018,3.226-.043,4.836a1.38,1.38,0,0,0,1.216,1.628,12.74,12.74,0,0,1,1.339.453c0-1.2-.007-2.248,0-3.292.025-3.311,2.449-5.193,5.666-4.325a11.587,11.587,0,0,0,6.186,0c3.221-.869,5.6.969,5.658,4.317C596.292,1016.807,596.275,1017.848,596.275,1019.04Zm-8.707,41.426q10.277,0,20.554,0c.362,0,.794.1,1.068-.063.328-.193.718-.617.716-.939s-.4-.724-.726-.938c-.229-.151-.626-.055-.948-.055q-20.736,0-41.471,0c-.282,0-.653-.1-.827.042a1.847,1.847,0,0,0-.757,1.028c-.023.28.428.7.764.877a2.514,2.514,0,0,0,1.072.05Zm1.1-3.916a47.241,47.241,0,0,1,2.561-4.29c1.44-1.923.929-5.4-.725-5.971,0,.871.027,1.716-.005,2.558-.071,1.863-.978,2.577-3.179,2.542-1.874-.03-2.723-.825-2.752-2.594-.014-.855,0-1.711,0-2.744a4.467,4.467,0,0,0-1.033,5.676c.914,1.574,1.876,3.12,2.9,4.823Zm-5.271-22.414v2.785h8.381l-.252-2.759A11.128,11.128,0,0,1,583.393,1034.136Zm25.813,22.39c.169-3.142.008-6.081-1.669-9.1-.181,3.264-.343,6.172-.505,9.1Zm-10.749-32.886c.93.07,1.9.221,2.028-.978a33.378,33.378,0,0,0,.026-3.454C598.1,1019.911,598.076,1021.646,598.457,1023.64Zm-21.893-.046c.448-2.827.328-3.094-1.995-4.4,0,.959-.005,1.885,0,2.811C574.581,1023.55,574.833,1023.758,576.565,1023.594Zm21.784,1.952c-.1.443-.189.791-.266,1.14-.071.327-.133.657-.2.993,1.933.187,2.747-.553,2.49-2.133Zm-5.163,3.978c.685-.342,1.7-.628,1.692-.883-.035-1.17-1.065-.627-1.672-.65-.58-.022-1.549-.451-1.6.6C591.589,1028.859,592.562,1029.174,593.185,1029.524Z" transform="translate(-563.307 -1000.369)" fill="url(#a)"/><path d="M609.854,1062.869H565.278l-.113-.063c-1.33-.74-1.977-1.364-2.234-2.156a5.093,5.093,0,0,1,.386-3.153,6.7,6.7,0,0,0,.164-2.395c-.013-.3-.027-.612-.028-.916a15.527,15.527,0,0,1,2.523-8.874,4.822,4.822,0,0,0,.751-3.517,4.785,4.785,0,0,1,.977-3.81,4.911,4.911,0,0,1,3.766-1.438l.539,0c1.3-.009,2.651-.019,3.978-.019,1.484,0,2.783.012,3.97.037h.059c.724,0,.974-.251,1.028-1.032.091-1.323.062-2.252-1.132-3.094-2.36-1.665-3.2-4.355-3.6-6.388l-.314,0c-.161,0-.3,0-.421-.007a3.389,3.389,0,0,1-3.38-3.292l-.007-.16a21.6,21.6,0,0,1,.037-3.55,3.829,3.829,0,0,1,1.078-2.32,1.664,1.664,0,0,0,.564-1.5c0-.339-.007-.688-.013-1.026a17.114,17.114,0,0,1,.163-3.409,8.994,8.994,0,0,1,3.142-5.4,9.337,9.337,0,0,1,5.917-2.1c1.017-.01,2.107-.015,3.43-.015q1.324,0,2.648,0,1.26,0,2.521,0c3.229,0,4.625,1.025,5.4,4.03a5.518,5.518,0,0,1,3.227,1.743c.657.844.926,1.972.926,3.891,0,.2,0,.4.006.591.007.449.014.913-.015,1.378a2.229,2.229,0,0,0,.718,2.045,4.04,4.04,0,0,1,.922,2.538c.1,1.952.064,3.935.034,5.852l-.006.354a4.565,4.565,0,0,1-1.23,3.221,4.372,4.372,0,0,1-3.2,1.224l-.139,0h-.12a1.6,1.6,0,0,0-1.621.834,4.5,4.5,0,0,1-1.613,1.652c-1.133.588-1.105,1.419-.967,2.727.02.19.041.387.055.582s.047.628.916.628h.037c1.178-.017,2.433-.024,3.95-.024,1.089,0,2.195,0,3.265.008l1.147,0a4.323,4.323,0,0,1,4.918,5.277,5.237,5.237,0,0,0,.823,3.547,15.968,15.968,0,0,1,2.527,8.871c.005.276.005.553,0,.82a8.274,8.274,0,0,0,.525,3.586,2.379,2.379,0,0,1-.144,2.294,5.833,5.833,0,0,1-2.054,1.856Zm-44.315-1h44.034c2.31-1.445,1.844-2.469,1.689-2.809a9.17,9.17,0,0,1-.615-4c0-.263,0-.535,0-.8a15,15,0,0,0-2.357-8.332,6.3,6.3,0,0,1-.991-4.169,3.362,3.362,0,0,0-3.924-4.214l-1.147,0c-1.069,0-2.174-.008-3.261-.008-1.511,0-2.762.008-3.935.024h-.051c-1.142,0-1.84-.567-1.913-1.554-.013-.179-.032-.36-.053-.551-.132-1.242-.3-2.787,1.5-3.719a3.436,3.436,0,0,0,1.216-1.279,2.588,2.588,0,0,1,2.479-1.32l.143,0h.116a3.229,3.229,0,0,0,3.429-3.46l.006-.354c.03-1.9.061-3.868-.033-5.788a2.983,2.983,0,0,0-.6-1.853,3.214,3.214,0,0,1-1.036-2.841c.027-.425.02-.849.013-1.3,0-.2-.006-.4-.006-.607a5.188,5.188,0,0,0-.715-3.277,5.014,5.014,0,0,0-2.969-1.459l-.3-.072-.07-.3c-.655-2.791-1.622-3.556-4.5-3.556q-1.261,0-2.523,0-1.323,0-2.646,0c-1.32,0-2.407,0-3.421.015a8.057,8.057,0,0,0-8.085,6.685,16.369,16.369,0,0,0-.146,3.21c.007.342.013.7.013,1.045a2.652,2.652,0,0,1-.906,2.256,2.843,2.843,0,0,0-.743,1.688,20.852,20.852,0,0,0-.031,3.385l.007.161a2.39,2.39,0,0,0,2.422,2.337c.112,0,.232.007.38.007l.337,0,.391,0h.419l.073.412c.542,3.051,1.549,4.951,3.265,6.161,1.609,1.135,1.653,2.531,1.553,3.98a1.847,1.847,0,0,1-2.026,1.964h-.08c-1.181-.025-2.473-.037-3.95-.037-1.323,0-2.669.009-3.971.019l-.539,0a3.957,3.957,0,0,0-3.026,1.1,3.779,3.779,0,0,0-.73,3.036,5.8,5.8,0,0,1-.914,4.183,14.546,14.546,0,0,0-2.354,8.314c0,.284.014.572.027.876a7.519,7.519,0,0,1-.217,2.762C563.455,1060.188,563.627,1060.788,565.539,1061.869Zm.83-.871a1.4,1.4,0,0,1-.659-.14c-.3-.16-1.081-.715-1.03-1.359a2.132,2.132,0,0,1,.941-1.377.968.968,0,0,1,.612-.186c.108,0,.213.01.314.019.08.007.156.015.215.015q20.735,0,41.471,0c.07,0,.154-.006.242-.013.105-.008.214-.017.327-.017a1.169,1.169,0,0,1,.654.167c.158.1.946.658.951,1.352a1.87,1.87,0,0,1-.963,1.373,1.367,1.367,0,0,1-.7.162c-.12,0-.237-.008-.35-.016s-.191-.013-.273-.013H567.015c-.085,0-.181.007-.283.015C566.614,1060.989,566.493,1061,566.369,1061Zm-.683-1.457a1.46,1.46,0,0,0,.49.432.456.456,0,0,0,.193.025c.086,0,.184-.007.286-.015s.236-.018.359-.018h41.109c.117,0,.232.008.343.016s.195.014.28.014a.451.451,0,0,0,.193-.024,1.2,1.2,0,0,0,.468-.5,1.361,1.361,0,0,0-.489-.518.5.5,0,0,0-.115-.009c-.073,0-.159.007-.249.014s-.211.016-.32.016q-20.736,0-41.471,0c-.105,0-.208-.01-.308-.019-.082-.008-.159-.015-.221-.015h-.028A1.644,1.644,0,0,0,565.686,1059.541Zm23.264-2.491h-2.8l-.146-.242c-.32-.531-.637-1.05-.943-1.553-.686-1.126-1.334-2.19-1.965-3.277a4.758,4.758,0,0,1-.6-3.247,5.528,5.528,0,0,1,1.725-3.044l.843-.794v1.158c0,.335,0,.652,0,.956,0,.621,0,1.207,0,1.78.024,1.487.658,2.077,2.26,2.1h.143c2.059,0,2.477-.725,2.529-2.062.022-.566.016-1.126.01-1.72,0-.267-.005-.543-.005-.82v-.7l.664.23a2.878,2.878,0,0,1,1.669,2.017,5.552,5.552,0,0,1-.707,4.726,23.994,23.994,0,0,0-1.692,2.761c-.265.478-.539.972-.839,1.482Zm-2.236-1h1.663c.239-.413.464-.819.682-1.214a24.727,24.727,0,0,1,1.766-2.876,4.548,4.548,0,0,0,.551-3.833,2.989,2.989,0,0,0-.369-.8c0,.507.006,1.026-.013,1.539-.08,2.092-1.168,3.024-3.528,3.024h-.158c-2.15-.034-3.211-1.043-3.244-3.086-.007-.447-.008-.9-.006-1.366a3.8,3.8,0,0,0-.1,4.038c.626,1.078,1.271,2.138,1.954,3.26C586.175,1055.162,586.442,1055.6,586.714,1056.05Zm-1.422.984H569.444l-.032-.466c-.017-.243-.024-.484-.031-.717a6.718,6.718,0,0,0-.146-1.465,1.552,1.552,0,0,0-.5-.76.585.585,0,0,0-.065,0,.191.191,0,0,0-.161.055.947.947,0,0,0-.129.653c.03.469.065.94.1,1.438.016.222.033.45.05.686l.039.536h-3.139l-.035-.462c-.212-2.792-.163-6.057,1.808-9.11l.92-1.425v1.7c0,.2-.012.4-.024.6a3.357,3.357,0,0,0,.045,1.107,1.657,1.657,0,0,0,.458.553,1.8,1.8,0,0,0,.362-.5c-.021-1.645-.122-3.325-.22-4.95-.031-.509-.062-1.034-.091-1.552-.012-.209-.03-.415-.049-.633-.024-.268-.048-.545-.059-.824a3.04,3.04,0,0,1,.646-2.343,3.079,3.079,0,0,1,2.343-.741c4.535,0,9.331,0,15.552,0h15.907c.1,0,.2,0,.3,0s.213,0,.319,0c.2,0,.359.006.509.019a2.407,2.407,0,0,1,2.387,2.686c-.2,3.734-.413,7.544-.622,11.229q-.119,2.089-.238,4.192l-.027.472H589.848l.469-.762c.228-.371.438-.728.641-1.073a23.311,23.311,0,0,1,1.288-2.031,6.229,6.229,0,0,0,1.134-4.75,5.575,5.575,0,0,0-2.407-3.719,2.146,2.146,0,0,0-1.078-.319.853.853,0,0,0-.3.045,2.218,2.218,0,0,0-.422,1.184,20.356,20.356,0,0,0-.021,3.067,1.353,1.353,0,0,1-.3,1.029,1.573,1.573,0,0,1-1.186.377l-.184.007c-.061,0-.12,0-.175,0a1.391,1.391,0,0,1-1.046-.364,1.41,1.41,0,0,1-.32-1.094,18.442,18.442,0,0,0-.021-3.059,1.91,1.91,0,0,0-.518-1.188.573.573,0,0,0-.246-.04,2.08,2.08,0,0,0-1.008.3,5.589,5.589,0,0,0-2.45,3.708,6.2,6.2,0,0,0,1.068,4.746c.458.635.858,1.289,1.322,2.045.226.369.46.75.72,1.162Zm-14.9-1h13.1l-.25-.407c-.453-.739-.844-1.378-1.28-1.982a7.2,7.2,0,0,1-1.24-5.515,6.579,6.579,0,0,1,2.889-4.363,3.059,3.059,0,0,1,1.552-.46,1.543,1.543,0,0,1,.693.145,2.7,2.7,0,0,1,1.064,1.964,19.488,19.488,0,0,1,.026,3.226c-.014.29.045.355.045.356s.054.053.322.053c.039,0,.081,0,.126,0l.2-.007a1.468,1.468,0,0,0,.483-.059.558.558,0,0,0,.036-.3,21.106,21.106,0,0,1,.026-3.219c.018-.168.2-1.655,1.03-2a1.794,1.794,0,0,1,.687-.123,3.153,3.153,0,0,1,1.632.486,6.566,6.566,0,0,1,2.838,4.378,7.234,7.234,0,0,1-1.314,5.517,22.576,22.576,0,0,0-1.231,1.944l-.193.328h13.054q.105-1.867.211-3.721c.209-3.684.426-7.493.622-11.224a1.427,1.427,0,0,0-1.473-1.637c-.122-.01-.256-.015-.425-.015-.1,0-.2,0-.3,0s-.213,0-.319,0H587.088c-6.221,0-11.017,0-15.552,0a2.215,2.215,0,0,0-1.623.435,2.173,2.173,0,0,0-.367,1.611c.01.255.032.507.056.775.019.217.039.441.051.665.029.515.06,1.04.091,1.547.1,1.636.2,3.328.221,5a1.873,1.873,0,0,1-.625,1.189,4.12,4.12,0,0,0-.287.348l-.361.52-.422-.472c-.089-.1-.2-.2-.313-.308a2.452,2.452,0,0,1-.769-1.032l-.013-.047a14.232,14.232,0,0,0-.812,6.358h1.133l-.011-.148c-.037-.5-.072-.974-.1-1.448a1.853,1.853,0,0,1,.4-1.4,1.233,1.233,0,0,1,1.1-.356c.683.091,1.2,1.021,1.322,1.5a7.558,7.558,0,0,1,.178,1.687C570.383,1055.891,570.385,1055.962,570.388,1056.033Zm39.292.993H606.5l.631-11.36.84,1.515a16.513,16.513,0,0,1,1.731,9.372Zm-2.12-1h1.169a16.426,16.426,0,0,0-.8-6.566Zm-15.238-18.6h-9.429v-3.994l.667.237a11.975,11.975,0,0,0,4.048.754,10.072,10.072,0,0,0,3.732-.722l.62-.243Zm-8.429-1h7.334l-.143-1.568a10.914,10.914,0,0,1-3.475.566,12.515,12.515,0,0,1-3.715-.59Zm3.687-2.852a9.241,9.241,0,0,1-3.919-.85,8.96,8.96,0,0,1-4.7-4.416,15.244,15.244,0,0,1-.889-7.33l.027-.413.41-.051c1.34-.166,1.8-.922,1.646-2.7a11.964,11.964,0,0,1-.019-1.326c0-.176.008-.358.009-.534.008-2.763,1.569-3.343,2.877-3.343a6.154,6.154,0,0,1,1.253.144,21.1,21.1,0,0,0,3.961.439h.069a9.126,9.126,0,0,0,2.036-.328c.168-.04.335-.08.5-.117a5.48,5.48,0,0,1,1.192-.144,2.683,2.683,0,0,1,2.146.886,3.71,3.71,0,0,1,.75,2.425c0,.177.007.354.011.532a14.924,14.924,0,0,1-.024,1.7c-.162,1.817.7,2.211,1.469,2.352l.41.075v6.358l-.542-.045c-.451-.038-.885-.081-1.3-.123-.891-.089-1.732-.173-2.562-.184h-.046a2,2,0,0,0-2.219,1.924c-.041,1.226.772,1.993,2.23,2.1.115.009.224.022.34.036l.169.02,1.021.113-.72.734A7.916,7.916,0,0,1,587.58,1033.569Zm-8.531-12.139c-.314,5.755,1.029,8.493,5.039,10.384a8.234,8.234,0,0,0,3.493.755,7.575,7.575,0,0,0,4.009-1.067,3.354,3.354,0,0,1-1.629-.836,2.838,2.838,0,0,1-.833-2.2,3.008,3.008,0,0,1,3.279-2.89c.872.012,1.734.1,2.647.189l.746.073v-4.458c-1.044-.315-2.069-1.166-1.875-3.326a13.967,13.967,0,0,0,.02-1.583c0-.182-.009-.363-.011-.544-.028-2.323-1.434-2.323-1.9-2.323a4.485,4.485,0,0,0-.972.12c-.162.036-.326.075-.489.114a9.511,9.511,0,0,1-2.354.355,22.1,22.1,0,0,1-4.15-.46,5.165,5.165,0,0,0-1.047-.122c-.871,0-1.871.267-1.877,2.345,0,.186,0,.373-.009.554a11.037,11.037,0,0,0,.016,1.216,4.306,4.306,0,0,1-.332,2.431A2.517,2.517,0,0,1,579.049,1021.431Zm14.122,8.659-.231-.13c-.186-.1-.417-.211-.641-.313-.683-.314-1.223-.561-1.2-1.078a1.116,1.116,0,0,1,1.189-1.182,3.8,3.8,0,0,1,.6.062,3.159,3.159,0,0,0,.335.043,2.346,2.346,0,0,0,.4-.045,3.7,3.7,0,0,1,.584-.062,1.122,1.122,0,0,1,1.171,1.241c.016.518-.521.737-1.264,1.039-.243.1-.495.2-.7.306Zm-1.043-1.641c.148.087.4.2.588.289.16.073.324.149.481.227.176-.079.359-.153.538-.226s.462-.188.62-.27a.244.244,0,0,0-.026-.069.35.35,0,0,0-.124-.015,2.957,2.957,0,0,0-.424.049,3.419,3.419,0,0,1-.537.058h-.057a3.857,3.857,0,0,1-.455-.054,3.037,3.037,0,0,0-.439-.05.325.325,0,0,0-.146.02h0A.167.167,0,0,0,592.129,1028.449Zm6.307-.242h0c-.188,0-.391-.01-.6-.031l-.551-.053.108-.542q.031-.154.06-.306c.045-.228.091-.464.141-.7s.108-.474.172-.745c.03-.126.062-.26.1-.4l.09-.386H600.8l.068.42a2.379,2.379,0,0,1-.4,2A2.533,2.533,0,0,1,598.436,1028.208Zm.308-2.161,0,.02c-.063.266-.118.495-.168.726-.03.138-.058.275-.086.415a1.582,1.582,0,0,0,1.216-.391,1.135,1.135,0,0,0,.217-.771Zm.5-1.86h0c-.221,0-.447-.018-.665-.035l-.158-.012-.382-.029-.072-.376a5.964,5.964,0,0,1,0-2.954,3.246,3.246,0,0,1,2.407-2.052l.64-.187v.667c0,.324.008.652.017,1a19.613,19.613,0,0,1-.045,2.506A1.527,1.527,0,0,1,599.242,1024.186Zm-.361-1.015c.126.009.246.015.361.015h0c.545,0,.7-.118.745-.576a18.874,18.874,0,0,0,.041-2.379c0-.1-.005-.205-.008-.309C598.773,1020.52,598.618,1021.57,598.881,1023.171Zm-23.111.97a1.567,1.567,0,0,1-1.391-.56,2.818,2.818,0,0,1-.308-1.573c0-.639,0-1.264,0-1.926q0-.44,0-.888v-.855l.745.419c1.173.66,1.909,1.114,2.247,1.859a5.557,5.557,0,0,1,0,3.055l-.061.383-.386.037C576.259,1024.125,575.991,1024.141,575.77,1024.141Zm-.7-4.079c0,.007,0,.015,0,.022,0,.66,0,1.283,0,1.918a2.706,2.706,0,0,0,.133,1.015c.021.031.085.125.566.125.1,0,.222,0,.361-.013a4.122,4.122,0,0,0,.02-2.1A2.521,2.521,0,0,0,575.069,1020.062Zm4.193-.3-.663-.229c-.18-.062-.341-.122-.5-.181a5.756,5.756,0,0,0-.785-.256,1.861,1.861,0,0,1-1.611-2.136c.03-.79.025-1.6.021-2.383,0-.8-.01-1.633.022-2.453a7.168,7.168,0,0,1,7.133-6.956c1.27-.012,2.65-.018,4.219-.018,1.522,0,3.07.006,4.567.011l.648,0a2.914,2.914,0,0,1,2.015.613,2.971,2.971,0,0,1,.876,1.932,1.566,1.566,0,0,0,1.456,1.479,3.413,3.413,0,0,1,2.135.959,3.492,3.492,0,0,1,.544,2.275c0,.425-.008.856-.017,1.272a23.861,23.861,0,0,0,.042,2.671,2.837,2.837,0,0,1-.388,1.946,2.489,2.489,0,0,1-1.737.96,3.238,3.238,0,0,0-.423.118c-.114.037-.244.078-.4.125l-.642.19v-.669c0-.386,0-.756,0-1.115,0-.746.007-1.45-.006-2.148-.047-2.493-1.436-4.041-3.625-4.041a5.408,5.408,0,0,0-1.4.2,12.087,12.087,0,0,1-6.446,0,5.332,5.332,0,0,0-1.384-.194c-2.2,0-3.633,1.586-3.652,4.04-.005.7,0,1.407,0,2.155,0,.364,0,.74,0,1.133Zm12.886-9.031a4.376,4.376,0,0,1,3.316,1.381,5.41,5.41,0,0,1,1.309,3.642c.013.71.01,1.42.006,2.172q0,.213,0,.431a2.621,2.621,0,0,1,.3-.071c1.051-.177,1.4-.672,1.3-1.828a24.6,24.6,0,0,1-.046-2.785c.009-.41.018-.835.017-1.248,0-1.677-.23-1.951-1.862-2.253a2.553,2.553,0,0,1-2.264-2.324c-.177-1.27-.64-1.679-1.9-1.684l-.648,0c-1.5-.005-3.043-.011-4.564-.011-1.566,0-2.943.006-4.209.018a6.143,6.143,0,0,0-6.144,6c-.031.8-.026,1.617-.022,2.409s.009,1.615-.021,2.427c-.027.7.181.982.821,1.12a5.407,5.407,0,0,1,.734.225q0-.21,0-.415c0-.75,0-1.459,0-2.165a5.3,5.3,0,0,1,1.3-3.642,4.432,4.432,0,0,1,3.347-1.39,6.329,6.329,0,0,1,1.644.228,11.089,11.089,0,0,0,5.926,0A6.4,6.4,0,0,1,592.147,1010.735Z" transform="translate(-563.307 -1000.369)" fill="rgba(0,0,0,0)"/><path d="M829.5,988.627c-.432.116-1.032.46-1.256.294a2.392,2.392,0,0,1-.594-1.317,6.763,6.763,0,0,1-.031-1.205,1.556,1.556,0,0,0-1.674-1.669q-7.62-.027-15.239-.005a1.586,1.586,0,0,0-1.724,1.648c-.07,2.579-.064,5.163,0,7.742a1.636,1.636,0,0,0,1.527,1.6c2.077.384,2.631,1.086,2.655,3.195a8.816,8.816,0,0,0,.218,2.271c.187-.257.393-.5.558-.772.628-1.032,1.264-2.06,1.855-3.114a2.9,2.9,0,0,1,2.778-1.573q3.447.031,6.894,0c1.672-.013,2.135-.5,2.161-2.18a2.4,2.4,0,0,1,.016-.721c.15-.429.282-1.04.6-1.183.3-.136.828.231,1.255.376v2.907a4.092,4.092,0,0,1-4.484,2.684c-1.928-.113-3.872.046-5.8-.051a2.07,2.07,0,0,0-2.181,1.279c-.778,1.454-1.7,2.832-2.529,4.259-.467.8-.948,1.557-2.051,1.289-1.135-.275-1.149-1.182-1.135-2.107.017-1.129-.018-2.259.011-3.388.02-.8-.191-1.234-1.117-1.346a3.276,3.276,0,0,1-3.03-3.231c-.106-2.736-.116-5.484.008-8.219a3.358,3.358,0,0,1,3.532-3.255c5.039-.032,10.078-.012,15.117-.012a3.9,3.9,0,0,1,3.661,2.65Z" transform="translate(-767.594 -982.822)" fill="url(#a)"/><path d="M817.43,982.322q2.113,0,4.226,0l4.179,0c1.844,0,3.189.961,4.114,2.938l.047.1v3.643l-.37.1c-.108.029-.248.083-.383.135a2.5,2.5,0,0,1-.84.221.754.754,0,0,1-.46-.143,2.666,2.666,0,0,1-.775-1.571l-.007-.03a3.142,3.142,0,0,1-.05-.889c.006-.145.012-.281.005-.408-.044-.824-.407-1.193-1.177-1.2-2.271-.008-4.729-.012-7.516-.012-2.584,0-5.127,0-7.721.007a1.1,1.1,0,0,0-1.225,1.162c-.067,2.471-.066,5.067,0,7.716.016.612.392.99,1.118,1.124,2.292.424,3.037,1.318,3.064,3.68v.142c0,.276.006.545.021.817l.123-.2c.519-.851,1.056-1.731,1.549-2.611a3.408,3.408,0,0,1,3.172-1.828h.046c1.069.01,2.19.014,3.332.014s2.3,0,3.553-.014a1.947,1.947,0,0,0,1.345-.315,2.06,2.06,0,0,0,.319-1.373c0-.057,0-.125-.009-.2a1.639,1.639,0,0,1,.053-.683c.026-.073.052-.155.079-.242.152-.48.325-1.024.785-1.231a.863.863,0,0,1,.357-.074,2.241,2.241,0,0,1,.9.278c.131.061.255.119.361.155l.339.115v3.364l-.038.092a4.833,4.833,0,0,1-1.783,2.278,4.928,4.928,0,0,1-2.735.728c-.148,0-.3,0-.456-.014-.486-.028-1.008-.042-1.644-.042-.436,0-.88.006-1.311.012s-.882.012-1.325.012c-.58,0-1.062-.011-1.518-.033-.056,0-.111,0-.164,0a1.558,1.558,0,0,0-1.552,1.02c-.488.912-1.035,1.8-1.565,2.665-.323.526-.658,1.07-.973,1.61-.392.672-.929,1.592-2.054,1.592a2.328,2.328,0,0,1-.547-.069c-1.55-.376-1.53-1.714-1.517-2.6.008-.5,0-1.016,0-1.512,0-.615-.007-1.251.009-1.881s-.092-.766-.678-.837a3.762,3.762,0,0,1-3.469-3.708c-.112-2.886-.109-5.665.008-8.26a3.85,3.85,0,0,1,4.029-3.732C812.668,982.328,814.8,982.322,817.43,982.322ZM829,985.591a3.333,3.333,0,0,0-3.161-2.263l-4.18,0q-2.112,0-4.225,0c-2.626,0-4.758.006-6.709.018a2.854,2.854,0,0,0-3.036,2.777c-.116,2.567-.118,5.318-.008,8.177a2.77,2.77,0,0,0,2.59,2.754,1.576,1.576,0,0,1,1.557,1.855c-.016.614-.012,1.242-.009,1.85,0,.5.006,1.02,0,1.533-.016,1.087.085,1.451.752,1.613a1.333,1.333,0,0,0,.311.041c.471,0,.748-.338,1.19-1.1.321-.55.658-1.1.985-1.63.522-.849,1.062-1.727,1.535-2.613a2.548,2.548,0,0,1,2.433-1.548c.069,0,.141,0,.214.005.439.022.905.032,1.468.032.436,0,.881-.006,1.311-.012s.882-.012,1.325-.012c.656,0,1.2.014,1.7.043A3.6,3.6,0,0,0,829,994.823v-2.471l-.121-.056a.4.4,0,1,0-.671.423c-.029.09-.058.183-.089.271a1.071,1.071,0,0,0,0,.278c.006.086.014.185.012.286a2.944,2.944,0,0,1-.606,2.059,2.83,2.83,0,0,1-2.05.613c-1.252.01-2.416.014-3.561.014s-2.27,0-3.341-.014h-.037a2.383,2.383,0,0,0-2.3,1.318c-.5.9-1.044,1.784-1.568,2.643l-.3.486a6.609,6.609,0,0,1-.407.576c-.058.077-.117.153-.173.231l-.621.852-.267-1.019a8.724,8.724,0,0,1-.233-2.252v-.141c-.022-1.89-.421-2.371-2.246-2.709a2.12,2.12,0,0,1-1.936-2.082c-.069-2.666-.07-5.28,0-7.768a2.081,2.081,0,0,1,2.223-2.135c2.595,0,5.138-.007,7.723-.007,2.788,0,5.247,0,7.519.012a2.058,2.058,0,0,1,2.172,2.142c.009.174,0,.342,0,.5a2.335,2.335,0,0,0,.023.61l.007.03a3,3,0,0,0,.333.938,4.192,4.192,0,0,0,.411-.143l.112-.043Z" transform="translate(-767.594 -982.822)" fill="rgba(0,0,0,0)"/><path d="M839.765,1036.716c1.89,0,3.781,0,5.671,0,.7,0,1.442.114,1.3.965a1.608,1.608,0,0,1-1.244.884q-5.79.1-11.583,0c-.45-.008-1.22-.528-1.266-.885-.1-.806.613-.972,1.328-.966C835.9,1036.726,837.835,1036.716,839.765,1036.716Z" transform="translate(-788.996 -1027.979)" fill="url(#a)"/><path d="M833.94,1036.211h.037c.728.005,1.522.008,2.5.008l3.252,0h.039l3.229,0c.952,0,1.727,0,2.44,0h.026a1.945,1.945,0,0,1,1.53.5,1.235,1.235,0,0,1,.242,1.046,2.032,2.032,0,0,1-1.729,1.3c-1.932.035-3.887.052-5.81.052s-3.874-.018-5.79-.053c-.6-.011-1.665-.633-1.753-1.321a1.246,1.246,0,0,1,.276-1.022A1.918,1.918,0,0,1,833.94,1036.211Zm2.534,1.008c-.978,0-1.774,0-2.5-.008h-.029c-.571,0-.729.129-.764.169a.279.279,0,0,0-.037.208,1.414,1.414,0,0,0,.782.474c1.91.035,3.852.052,5.772.052s3.867-.018,5.792-.052a1.367,1.367,0,0,0,.762-.481.341.341,0,0,0-.02-.22c-.029-.035-.172-.148-.767-.148h-.022c-.714,0-1.491,0-2.444,0l-3.229,0h-.039Z" transform="translate(-788.996 -1027.979)" fill="rgba(0,0,0,0)"/><path d="M865.25,1012.116c-1.166,0-2.332,0-3.5,0-.658,0-1.349-.128-1.222-.915a1.5,1.5,0,0,1,1.128-.9q3.675-.124,7.355,0c.394.014.768.593,1.151.911-.391.3-.763.814-1.178.853C867.75,1012.189,866.5,1012.115,865.25,1012.116Z" transform="translate(-812.357 -1005.802)" fill="url(#a)"/><path d="M867.352,1012.639c-.352,0-.709-.006-1.054-.011s-.693-.011-1.037-.011h-2.05c-.569,0-1.032,0-1.456,0h-.028a1.866,1.866,0,0,1-1.451-.488,1.194,1.194,0,0,1-.24-1.006,1.957,1.957,0,0,1,1.6-1.317c1.214-.041,2.445-.062,3.657-.062,1.241,0,2.5.022,3.732.065a1.778,1.778,0,0,1,1.135.713,4.048,4.048,0,0,0,.318.313l.484.4-.5.381a4.172,4.172,0,0,0-.323.288,1.975,1.975,0,0,1-1.112.665C868.543,1012.617,868.009,1012.639,867.352,1012.639Zm-2.1-1.023h.011c.352,0,.709.006,1.054.011s.693.011,1.037.011c.626,0,1.13-.02,1.588-.062.107-.01.333-.221.493-.372a1.979,1.979,0,0,0-.445-.395c-1.221-.042-2.463-.064-3.69-.064-1.2,0-2.42.021-3.623.061a1.226,1.226,0,0,0-.653.485.279.279,0,0,0,.015.19c.019.023.144.136.689.136h.023c.425,0,.89,0,1.461,0h2.039Z" transform="translate(-812.357 -1005.802)" fill="rgba(0,0,0,0)"/><path d="M833.661,1012.65l-1.369-1.429a4.818,4.818,0,0,1,1.371-.863c.639-.143,1.453.048,1.366.892C834.985,1011.671,834.3,1012.026,833.661,1012.65Z" transform="translate(-788.708 -1005.86)" fill="url(#a)"/><path d="M833.649,1013.36l-2.133-2.226.5-.33c.123-.082.248-.179.381-.283a3.018,3.018,0,0,1,1.157-.651,2.274,2.274,0,0,1,.5-.055,1.544,1.544,0,0,1,1.173.458,1.28,1.28,0,0,1,.3,1.028c-.05.483-.446.8-.9,1.177-.2.163-.409.332-.611.53Zm-.6-2.076.641.669c.106-.09.208-.173.3-.252a2.616,2.616,0,0,0,.541-.511.321.321,0,0,0-.051-.248.613.613,0,0,0-.43-.128,1.289,1.289,0,0,0-.278.031A2.141,2.141,0,0,0,833.045,1011.284Z" transform="translate(-788.708 -1005.86)" fill="rgba(0,0,0,0)"/></g></svg>