<svg xmlns="http://www.w3.org/2000/svg" xmlns:xlink="http://www.w3.org/1999/xlink" width="51.137" height="52.253" viewBox="0 0 51.137 52.253"><defs><linearGradient id="a" x1="0.5" x2="0.5" y2="1" gradientUnits="objectBoundingBox"><stop offset="0" stop-color="#c5933b"/><stop offset="0.485" stop-color="#e4c882"/><stop offset="1" stop-color="#c5933b"/></linearGradient></defs><g transform="translate(0.5 0.5)"><path d="M174.236,1060.443c2.114,0,4.048.034,5.98-.015.979-.025,1.376.357,1.427,1.326.2,3.826-1.665,5.836-5.488,5.837q-17.431,0-34.862,0c-3.748,0-5.449-1.713-5.45-5.491q0-21.788,0-43.577c0-1.949.1-2.045,2.045-2.045q17.189,0,34.378,0c1.932,0,1.97.04,1.97,1.953q0,20.215,0,40.43Zm-36.61-42.113v.972q0,21.652,0,43.3a6.682,6.682,0,0,0,.03.846,2.708,2.708,0,0,0,2.531,2.34c1.889.11,3.021-1.139,3.044-3.358.02-1.99.02-1.991,2.028-1.991h27.22V1018.33Zm42.116,43.893H145.127l-.8,3.52a5.806,5.806,0,0,0,.63.061q15.971,0,31.943-.005C179,1065.8,180.005,1064.508,179.742,1062.223Z" transform="translate(-135.842 -1016.341)" fill="url(#a)"/><path d="M158.907,1068.094l-17.613,0a6.026,6.026,0,0,1-4.485-1.477,6.121,6.121,0,0,1-1.465-4.514c0-12.773,0-25.761,0-38.321v-5.256c0-1.034.021-1.69.438-2.107s1.072-.438,2.106-.438q17.189,0,34.378,0c1.032,0,1.654,0,2.061.4s.408,1.024.408,2.048q0,16.172,0,32.344v9.168l1.345.005c.59,0,1.148.006,1.709.006.942,0,1.709-.008,2.413-.026h.1a1.652,1.652,0,0,1,1.839,1.8,6.164,6.164,0,0,1-1.388,4.741,6.079,6.079,0,0,1-4.6,1.622Zm-4.059-51.116h-16.96a3.484,3.484,0,0,0-1.4.145,3.483,3.483,0,0,0-.145,1.4v5.256c0,12.56,0,25.547,0,38.32,0,3.5,1.481,4.99,4.95,4.991q17.431,0,34.861,0a5.141,5.141,0,0,0,3.874-1.311,5.227,5.227,0,0,0,1.115-4c-.038-.73-.243-.853-.841-.853h-.075c-.713.018-1.488.026-2.439.026-.564,0-1.123,0-1.714-.006s-1.213-.006-1.84-.006h-.5v-10.168q0-16.172,0-32.344a3.849,3.849,0,0,0-.113-1.338,3.918,3.918,0,0,0-1.357-.114Zm7.237,49.33-11.546,0-5.585,0a3.961,3.961,0,0,1-.528-.045c-.054-.007-.106-.014-.152-.019l-.563-.057,1.017-4.46h35.459l.051.443a3.87,3.87,0,0,1-.74,3.129,3.321,3.321,0,0,1-2.6,1C172.5,1066.305,167.8,1066.308,162.085,1066.308Zm-17.148-1h.017l5.585,0,11.546,0c5.71,0,10.416,0,14.811-.01a2.378,2.378,0,0,0,1.856-.668,2.673,2.673,0,0,0,.527-1.907H145.526Zm-4.523,1c-.084,0-.169,0-.255-.008a3.2,3.2,0,0,1-3-2.776,6.165,6.165,0,0,1-.034-.808v-.1q0-19.618,0-39.237v-5.539H172.98v43.113H145.26a4.259,4.259,0,0,0-1.409.106,4.183,4.183,0,0,0-.119,1.39,4.367,4.367,0,0,1-.876,2.8A3.069,3.069,0,0,1,140.414,1066.3Zm-2.288-47.469v4.539q0,19.619,0,39.237v.1a5.335,5.335,0,0,0,.026.679,2.2,2.2,0,0,0,2.064,1.9c.067,0,.133.006.2.006,1.991,0,2.307-1.8,2.318-2.87.012-1.132.017-1.7.418-2.094s.971-.392,2.109-.392h26.72V1018.83Z" transform="translate(-135.842 -1016.341)" fill="rgba(0,0,0,0)"/><path d="M391.743,1033.793c0-4.639.014-9.278-.008-13.917-.008-1.591.27-3.118,1.894-3.715,1.8-.663,3.808-.893,5.4.427a3.985,3.985,0,0,1,1.205,2.728c.086,9.721.059,19.443.039,29.165a3.528,3.528,0,0,1-.356,1.382c-.926,2.055-1.864,4.105-2.857,6.128a4.923,4.923,0,0,1-1,1.06q-.561-.547-1.121-1.094c-.027-.027-.034-.072-.055-.107a22.636,22.636,0,0,1-3.183-14.073C391.939,1039.135,391.743,1036.455,391.743,1033.793Zm1.9-10.614v24.842h1.415v-24.842Zm4.794,24.879v-24.839h-1.41v24.839Zm-4.889-26.817h5c-.256-1.228.612-2.784-.752-3.373a4.831,4.831,0,0,0-3.565.026C392.932,1018.5,393.712,1020.032,393.544,1021.241Zm.472,28.577,2.014,4.338,1.99-4.338Z" transform="translate(-350.156 -1015.628)" fill="url(#a)"/><path d="M396.269,1015.128a4.691,4.691,0,0,1,3.08,1.074,4.466,4.466,0,0,1,1.386,3.109c.081,9.112.061,18.376.043,27.335l0,1.835a3.97,3.97,0,0,1-.4,1.586c-.833,1.85-1.825,4.026-2.864,6.143a3.022,3.022,0,0,1-.774.895c-.115.1-.223.2-.317.293l-.349.359-.585-.569c-.294-.286-.6-.583-.9-.876a.64.64,0,0,1-.146-.228,23.432,23.432,0,0,1-2.786-6.889,24.106,24.106,0,0,1-.453-7.465,48.759,48.759,0,0,0,.078-5.438c-.019-.819-.038-1.666-.038-2.5q0-1.965,0-3.929c0-3.273.006-6.658-.01-9.986-.008-1.566.238-3.458,2.222-4.187A8.248,8.248,0,0,1,396.269,1015.128Zm-.2,41.233.006-.005a2.248,2.248,0,0,0,.537-.585c1.033-2.1,2.02-4.271,2.85-6.113a3.005,3.005,0,0,0,.312-1.178l0-1.835c.019-8.956.038-18.218-.043-27.324a3.473,3.473,0,0,0-1.024-2.348,3.669,3.669,0,0,0-2.441-.844,7.265,7.265,0,0,0-2.466.5c-1.122.412-1.576,1.352-1.567,3.244.016,3.331.013,6.717.01,9.992q0,1.964,0,3.928c0,.823.019,1.664.038,2.477a49.509,49.509,0,0,1-.082,5.551,22.033,22.033,0,0,0,3.114,13.771.7.7,0,0,1,.033.063C395.586,1055.891,395.83,1056.129,396.069,1056.361Zm-.04-39.321h0a5.072,5.072,0,0,1,1.963.369c1.236.534,1.127,1.711,1.048,2.57a4.154,4.154,0,0,0,0,1.16l.126.6H392.97l.079-.569a4.789,4.789,0,0,0-.032-1.084c-.093-.928-.209-2.083,1-2.648A4.865,4.865,0,0,1,396.028,1017.04Zm1.966,3.7a8.18,8.18,0,0,1,.049-.854c.088-.954.072-1.335-.449-1.56a4.06,4.06,0,0,0-1.566-.287,3.857,3.857,0,0,0-1.589.307c-.514.24-.525.663-.427,1.642.025.247.05.5.056.753Zm-4.855,1.938h2.415v25.842h-2.415Zm1.415,1h-.415v23.842h.415Zm1.97-.96h2.41v25.839h-2.41Zm1.41,1h-.41v23.839h.41Zm-4.7,25.6H398.8l-2.767,6.031Zm4.008,1H394.8l1.228,2.645Z" transform="translate(-350.156 -1015.628)" fill="rgba(0,0,0,0)"/><path d="M304.514,1043.741c-2.113,2.083-2.113,2.083-4.2-.01,0,.772,0,1.345,0,1.917a8.5,8.5,0,0,1-.036,1.927c-.117.489-.481,1.213-.847,1.288-.823.169-.891-.6-.9-1.224-.017-1.29-.007-2.581-.007-3.871a21.031,21.031,0,0,1,.034-2.416,1.393,1.393,0,0,1,.605-1.028,1.366,1.366,0,0,1,1.1.452c.74.792,1.39,1.668,2.151,2.6.719-.883,1.354-1.748,2.088-2.521a1.658,1.658,0,0,1,1.191-.52c.232.026.552.664.561,1.033.052,2.176.065,4.356-.017,6.53-.013.353-.563.687-.864,1.029-.283-.367-.779-.717-.811-1.1C304.449,1046.554,304.514,1045.268,304.514,1043.741Z" transform="translate(-272.145 -1036.305)" fill="url(#a)"/><path d="M299.3,1039.8a2.066,2.066,0,0,1,1.324.631c.541.579,1.028,1.192,1.543,1.842l.242.3.217-.273c.5-.632.972-1.229,1.509-1.794a2.232,2.232,0,0,1,1.468-.68,1.233,1.233,0,0,1,.142.008c.64.072.994,1.1,1,1.518.061,2.542.055,4.627-.017,6.561a1.618,1.618,0,0,1-.7,1.06,3.7,3.7,0,0,0-.293.281l-.4.455-.37-.48a3.838,3.838,0,0,0-.272-.3,1.843,1.843,0,0,1-.641-1.069c-.076-.931-.064-1.873-.051-2.871,0-.022,0-.045,0-.067a2.45,2.45,0,0,1-1.6.873,2.424,2.424,0,0,1-1.6-.88v.727c0,.182.009.367.019.563a5.17,5.17,0,0,1-.069,1.48c-.1.412-.512,1.513-1.233,1.661a1.579,1.579,0,0,1-.316.034,1.075,1.075,0,0,1-1.039-.734,2.947,2.947,0,0,1-.146-1.007c-.013-.961-.01-1.937-.008-2.88q0-.5,0-1c0-.222,0-.451-.009-.673a13.182,13.182,0,0,1,.046-1.8,1.823,1.823,0,0,1,.938-1.442A.917.917,0,0,1,299.3,1039.8Zm3.109,4.369-.388-.477c-.221-.272-.433-.539-.638-.8-.5-.634-.978-1.232-1.491-1.781a1.193,1.193,0,0,0-.568-.312,1.232,1.232,0,0,0-.271.605,12.25,12.25,0,0,0-.04,1.665c0,.227.009.461.009.694q0,.5,0,1c0,.94,0,1.911.008,2.865a2.29,2.29,0,0,0,.079.662c.035.092.047.092.105.092a.543.543,0,0,0,.1-.01,1.973,1.973,0,0,0,.481-.918,4.375,4.375,0,0,0,.043-1.2c-.01-.2-.021-.407-.02-.614v-3.125l.854.854c.857.858,1.423,1.424,1.742,1.424s.892-.564,1.758-1.417l.851-.839v1.195c0,.442-.005.862-.011,1.268-.012.974-.024,1.894.048,2.777a1.552,1.552,0,0,0,.338.429,1.992,1.992,0,0,0,.34-.353c.071-1.907.076-3.967.016-6.479a1.3,1.3,0,0,0-.211-.545,1.337,1.337,0,0,0-.678.364c-.505.533-.964,1.112-1.45,1.726-.2.25-.4.508-.613.767Z" transform="translate(-272.145 -1036.305)" fill="rgba(0,0,0,0)"/><path d="M256.742,1044.914a12.063,12.063,0,0,1-.038,2.248c-.081.4-.54.734-.83,1.1-.305-.348-.862-.687-.875-1.046-.081-2.21-.087-4.426.011-6.635a1.483,1.483,0,0,1,1.044-.977,19.6,19.6,0,0,1,3.853,0,1.461,1.461,0,0,1,.983,1.019c.093,2.209.086,4.425.006,6.635-.012.345-.57.67-.875,1-.262-.33-.693-.634-.751-1a15.393,15.393,0,0,1-.035-2.352Zm2.429-3.6h-2.315v1.608h2.315Z" transform="translate(-235.64 -1035.639)" fill="url(#a)"/><path d="M255.893,1049.039l-.395-.45a3.74,3.74,0,0,0-.3-.286,1.638,1.638,0,0,1-.7-1.071c-.087-2.37-.083-4.553.011-6.675A1.913,1.913,0,0,1,256,1039.1a20.2,20.2,0,0,1,3.952,0,1.926,1.926,0,0,1,1.432,1.5c.089,2.128.091,4.311.006,6.675a1.581,1.581,0,0,1-.708,1.05,3.676,3.676,0,0,0-.3.274l-.4.433-.365-.46c-.066-.083-.152-.171-.244-.265a1.862,1.862,0,0,1-.609-.964,8.968,8.968,0,0,1-.056-1.709c0-.073,0-.147.006-.222h-1.474c0,.068,0,.135.008.2a6.955,6.955,0,0,1-.065,1.643,2.128,2.128,0,0,1-.659,1.017c-.1.1-.2.2-.27.3Zm.349-4.625h3.492v.5c0,.259-.008.51-.015.752a8.246,8.246,0,0,0,.044,1.521,1.207,1.207,0,0,0,.285.37,2.172,2.172,0,0,0,.348-.344c.083-2.323.081-4.47-.006-6.561a1.2,1.2,0,0,0-.538-.551,19.226,19.226,0,0,0-3.749,0,1.231,1.231,0,0,0-.594.518c-.092,2.084-.1,4.229-.011,6.558a2.037,2.037,0,0,0,.354.368,1.409,1.409,0,0,0,.362-.48,6.24,6.24,0,0,0,.047-1.41c-.009-.238-.018-.484-.018-.74Zm3.429-.994h-3.315v-2.608h3.315Zm-2.315-1h1.315v-.608h-1.315Z" transform="translate(-235.64 -1035.639)" fill="rgba(0,0,0,0)"/><path d="M227.51,1239.131c-2.863,0-5.726,0-8.588,0-.641,0-1.411.074-1.434-.864s.721-.926,1.381-.926q8.528-.006,17.056,0c.662,0,1.4,0,1.373.933s-.8.854-1.44.856C233.075,1239.136,230.292,1239.131,227.51,1239.131Z" transform="translate(-204.258 -1201.41)" fill="url(#a)"/><path d="M231.947,1239.632h-9c-1.609,0-2.851,0-4.025,0h-.251c-.451,0-1.649,0-1.682-1.353a1.353,1.353,0,0,1,.347-1.019,2.026,2.026,0,0,1,1.521-.419h.012q8.528-.006,17.057,0a2.029,2.029,0,0,1,1.529.422,1.355,1.355,0,0,1,.343,1.027c-.042,1.342-1.215,1.342-1.657,1.342h-.282C234.717,1239.63,233.511,1239.632,231.947,1239.632Zm-4.437-1h4.437c1.562,0,2.768,0,3.908-.005h.285c.645,0,.648-.094.657-.373a.455.455,0,0,0-.062-.3c-.113-.117-.515-.117-.809-.118q-8.536-.006-17.058,0h-.012c-.292,0-.692,0-.806.117a.444.444,0,0,0-.063.3c.007.282.009.377.683.377h.254c1.174,0,2.414,0,4.022,0Z" transform="translate(-204.258 -1201.41)" fill="rgba(0,0,0,0)"/><path d="M164.109,1046.733a24.8,24.8,0,0,1,3.018.039c.4.051.745.529,1.115.813-.361.284-.7.781-1.087.814-1.239.1-2.492.028-3.739.043-.833.01-1.148-.436-1.148-1.205q0-3.139,0-6.278c0-.828.337-1.278,1.226-1.258,1.207.026,2.42-.06,3.618.044.4.035.753.51,1.129.783-.4.291-.766.776-1.194.834a22.315,22.315,0,0,1-2.936.039v1.793c.877,0,1.708-.011,2.538,0,.673.012,1.54-.107,1.56.866s-.814.917-1.51.916c-.837,0-1.675,0-2.587,0Z" transform="translate(-157.984 -1035.792)" fill="url(#a)"/><path d="M165.572,1048.955c-.306,0-.616,0-.915-.008s-.6-.008-.9-.008l-.333,0h-.032a1.562,1.562,0,0,1-1.243-.49,1.779,1.779,0,0,1-.378-1.216v-.521c0-1.886,0-3.837,0-5.755a1.779,1.779,0,0,1,.449-1.327,1.658,1.658,0,0,1,1.222-.434h.066c.16,0,.329.005.518.005.27,0,.545,0,.812-.007s.549-.007.824-.007c.6,0,1.059.017,1.5.055a1.919,1.919,0,0,1,1.072.615,3.932,3.932,0,0,0,.308.263l.552.4-.55.4c-.1.076-.212.174-.326.278a2.147,2.147,0,0,1-1.1.648,9.312,9.312,0,0,1-1.267.074c-.283,0-.574-.007-.855-.015l-.382-.009v.786l1.05,0c.385,0,.7,0,1,.008h.3a2.431,2.431,0,0,1,1.061.171,1.233,1.233,0,0,1,.689,1.184,1.339,1.339,0,0,1-.349,1.006,1.979,1.979,0,0,1-1.451.421h-2.3v.75l.43-.009c.3-.007.577-.013.86-.013a10.156,10.156,0,0,1,1.291.07,1.97,1.97,0,0,1,1.054.642c.107.1.207.2.3.27l.511.392-.506.4a3.812,3.812,0,0,0-.295.273,1.815,1.815,0,0,1-1.059.646C166.722,1048.937,166.221,1048.955,165.572,1048.955Zm-1.819-1.016c.306,0,.616,0,.916.008s.6.008.9.008c.619,0,1.094-.017,1.54-.055a1.413,1.413,0,0,0,.388-.309,1.3,1.3,0,0,0-.437-.323,9.206,9.206,0,0,0-1.165-.062c-.271,0-.546.006-.837.013-.307.007-.623.014-.953.014h-.5v-2.755h3.3c.185,0,.618,0,.736-.12a.459.459,0,0,0,.063-.285c-.006-.274-.008-.376-.751-.376h-.318c-.289-.005-.6-.007-.979-.007-.506,0-1.02,0-1.55,0h-.5V1040.9h.5c.31,0,.613.008.907.015s.559.014.829.014a8.351,8.351,0,0,0,1.133-.065,1.366,1.366,0,0,0,.494-.339,1.2,1.2,0,0,0-.4-.284c-.407-.035-.841-.051-1.409-.051-.269,0-.545,0-.811.007s-.549.007-.825.007c-.2,0-.373,0-.54-.005a.771.771,0,0,0-.558.139.951.951,0,0,0-.157.618c0,1.92,0,3.871,0,5.758v.521a.891.891,0,0,0,.133.56.637.637,0,0,0,.488.145h.021Z" transform="translate(-157.984 -1035.792)" fill="rgba(0,0,0,0)"/><path d="M227.306,1135.6q-4.293,0-8.586,0c-.627,0-1.3.024-1.276-.863s.7-.835,1.318-.835q8.586,0,17.172,0c.614,0,1.307-.062,1.333.816.029.984-.732.879-1.375.88Q231.6,1135.606,227.306,1135.6Z" transform="translate(-204.221 -1114.741)" fill="url(#a)"/><path d="M236.234,1136.1c-.112,0-.226,0-.335,0h-.006l-3.9,0h-9.245l-4.031,0h-.114a1.785,1.785,0,0,1-1.331-.387,1.313,1.313,0,0,1-.333-.989,1.214,1.214,0,0,1,.648-1.152,2.23,2.23,0,0,1,1.013-.171h.157q8.586,0,17.172,0h.23c.428,0,1.564,0,1.6,1.3a1.348,1.348,0,0,1-.333,1.02A1.573,1.573,0,0,1,236.234,1136.1Zm-.343-1h.007c.11,0,.223,0,.335,0,.339,0,.449-.04.482-.074a.477.477,0,0,0,.051-.293c-.008-.261-.01-.331-.6-.331h-.23q-8.586,0-17.172,0H218.6c-.653,0-.655.074-.662.347a.43.43,0,0,0,.049.266c.083.085.456.085.615.085h.113l4.032,0H232Z" transform="translate(-204.221 -1114.741)" fill="rgba(0,0,0,0)"/><path d="M227.422,1185.873q4.292,0,8.585,0c.617,0,1.306-.034,1.278.861-.027.847-.682.861-1.316.861q-8.585,0-17.17,0c-.627,0-1.3.007-1.335-.839-.04-.99.737-.879,1.373-.881C221.7,1185.868,224.56,1185.872,227.422,1185.873Z" transform="translate(-204.238 -1158.286)" fill="url(#a)"/><path d="M222.841,1185.371h13.286a1.777,1.777,0,0,1,1.33.388,1.3,1.3,0,0,1,.326.989,1.234,1.234,0,0,1-.723,1.187,2.6,2.6,0,0,1-1.085.158h-.007q-8.585,0-17.169,0h-.049a2.622,2.622,0,0,1-1.063-.153,1.223,1.223,0,0,1-.723-1.165,1.339,1.339,0,0,1,.324-1.023,1.565,1.565,0,0,1,1.2-.381c.112,0,.224,0,.333,0h.013C220,1185.373,221.272,1185.371,222.841,1185.371Zm4.963,1h-4.963c-1.569,0-2.841,0-4,0h-.015l-.333,0c-.338,0-.447.04-.48.074a.47.47,0,0,0-.046.29c.011.269.015.359.786.359h.048q8.585,0,17.17,0h.007c.8,0,.8-.095.809-.377a.423.423,0,0,0-.045-.262c-.081-.083-.453-.083-.611-.083H227.8Z" transform="translate(-204.238 -1158.286)" fill="rgba(0,0,0,0)"/><path d="M209.67,1044.087c-.727-1-1.448-1.879-2.014-2.846-.193-.331.005-.89.025-1.346.445.113,1.033.088,1.305.368a22.314,22.314,0,0,1,1.756,2.32c.556-.741,1.079-1.422,1.584-2.117.37-.509.756-1.061,1.457-.581.786.538.31,1.111-.076,1.642-.612.843-1.228,1.683-1.866,2.558.7.962,1.41,1.835,1.976,2.8.2.345.049.9.058,1.36-.475-.118-1.095-.088-1.394-.383a19.419,19.419,0,0,1-1.733-2.253,21.85,21.85,0,0,1-1.754,2.291c-.279.283-.868.26-1.317.376-.01-.461-.2-1.025,0-1.365C208.243,1045.94,208.963,1045.064,209.67,1044.087Z" transform="translate(-195.95 -1035.801)" fill="url(#a)"/><path d="M207.19,1048.914l-.014-.631a3.919,3.919,0,0,0-.04-.4,1.9,1.9,0,0,1,.111-1.228,21.493,21.493,0,0,1,1.415-2.047c.127-.17.257-.344.387-.52-.135-.182-.269-.362-.4-.537a21.711,21.711,0,0,1-1.425-2.057,1.826,1.826,0,0,1-.091-1.226,3.807,3.807,0,0,0,.048-.393l.027-.615.6.152a3.906,3.906,0,0,0,.392.069,1.89,1.89,0,0,1,1.148.435,12.891,12.891,0,0,1,1.276,1.636l.132.188.086-.114c.377-.5.733-.971,1.083-1.452l.015-.021a1.758,1.758,0,0,1,1.34-.95,1.4,1.4,0,0,1,.788.271,1.348,1.348,0,0,1,.626.875,1.9,1.9,0,0,1-.526,1.4l-.053.073c-.422.582-.838,1.151-1.279,1.754l-.373.51c.127.172.254.343.379.509a22.345,22.345,0,0,1,1.408,2.033,1.983,1.983,0,0,1,.149,1.206c-.012.144-.024.28-.022.4l.013.652-.633-.157a4.256,4.256,0,0,0-.421-.072,2.031,2.031,0,0,1-1.2-.441,11.315,11.315,0,0,1-1.277-1.605l-.105-.149-.118.167a12.669,12.669,0,0,1-1.28,1.621,1.928,1.928,0,0,1-1.153.439,4,4,0,0,0-.4.071Zm.923-8.435a1.438,1.438,0,0,0-.025.511,20.984,20.984,0,0,0,1.361,1.961c.2.272.415.552.625.844l.212.293-.212.293c-.2.284-.412.56-.612.827a20.747,20.747,0,0,0-1.352,1.951,1.353,1.353,0,0,0,.008.527,1.334,1.334,0,0,0,.517-.14,11.946,11.946,0,0,0,1.176-1.5c.17-.24.345-.489.534-.743l.4-.538.4.538c.184.247.356.491.522.728a10.582,10.582,0,0,0,1.161,1.468,1.406,1.406,0,0,0,.577.154,1.243,1.243,0,0,0-.022-.52,21.613,21.613,0,0,0-1.348-1.941c-.2-.264-.4-.536-.6-.815l-.213-.294.214-.293.588-.805c.44-.6.855-1.17,1.277-1.751l.056-.076c.148-.2.371-.507.348-.641-.01-.056-.086-.137-.205-.219a.468.468,0,0,0-.223-.1c-.14,0-.366.311-.531.538l-.015.021c-.355.488-.714.964-1.094,1.467l-.494.656-.4.538-.4-.542c-.191-.259-.367-.512-.538-.756a12.167,12.167,0,0,0-1.174-1.512A1.385,1.385,0,0,0,208.113,1040.478Z" transform="translate(-195.95 -1035.801)" fill="rgba(0,0,0,0)"/><path d="M171.309,1178.808c-2.745-.03-2.821.475-2.8-2.834.021-2.926,0-2.91,2.885-2.93,3.3-.023,2.859.009,2.865,2.892C174.268,1179.187,174.555,1178.785,171.309,1178.808Zm1.153-1.743v-2.121h-2.071v2.121Z" transform="translate(-163.215 -1147.535)" fill="url(#a)"/><path d="M169.89,1179.32a1.894,1.894,0,0,1-1.42-.39c-.457-.461-.471-1.195-.458-2.959v-.048c.011-1.564.016-2.349.514-2.854s1.277-.513,2.823-.523h.045l.668,0c1.161,0,1.9.032,2.328.47.413.421.4,1.024.383,2.022,0,.264-.011.564-.01.9,0,.266,0,.507.005.726.012,1.228.019,1.845-.39,2.257a2.234,2.234,0,0,1-1.66.4l-.458,0c-.276,0-.589,0-.946,0H171.3c-.357,0-.671,0-.941.006C170.194,1179.317,170.034,1179.32,169.89,1179.32Zm2.17-5.778-.661,0h-.045c-1.149.008-1.908.013-2.117.225s-.218.989-.226,2.159v.049a6.307,6.307,0,0,0,.168,2.247c.094.094.542.094.711.094.136,0,.291,0,.456-.005.274,0,.6-.01.964-.006s.678,0,.957,0l.45,0a2.768,2.768,0,0,0,.949-.1,4.531,4.531,0,0,0,.1-1.543c0-.221,0-.465-.005-.734,0-.348.005-.653.01-.922a3.131,3.131,0,0,0-.1-1.3A4.219,4.219,0,0,0,172.06,1173.541Zm.9,4.024h-3.071v-3.121h3.071Zm-2.071-1h1.071v-1.121h-1.071Z" transform="translate(-163.215 -1147.535)" fill="rgba(0,0,0,0)"/><path d="M174.264,1228.051c0,2.951.281,2.83-2.781,2.815-3.017-.015-2.994.364-2.972-3.03.017-2.746,0-2.746,2.766-2.746C174.57,1225.09,174.258,1224.81,174.264,1228.051Zm-3.857-1.193v2.2h2.061v-2.2Z" transform="translate(-163.214 -1191.145)" fill="url(#a)"/><path d="M170.209,1231.372a2.3,2.3,0,0,1-1.732-.427c-.482-.485-.477-1.281-.466-3.026v-.127c.009-1.49.014-2.238.509-2.722s1.249-.481,2.757-.481c.264,0,.5,0,.72,0l.512,0c.866,0,1.463.029,1.851.42.422.425.417,1.045.408,2.281,0,.227,0,.485,0,.766,0,.249,0,.475,0,.681.01,1.149.015,1.782-.4,2.206-.4.4-1.018.434-1.987.434h0l-.543,0-.35,0c-.3,0-.57,0-.813,0Zm2.3-5.788-.5,0c-.22,0-.461,0-.726,0a4.7,4.7,0,0,0-2.059.2,4.5,4.5,0,0,0-.208,2.014v.127a5.878,5.878,0,0,0,.176,2.315c.131.132.711.132,1.023.132l.45,0c.247,0,.522,0,.827,0l.352,0,.537,0h0a3.3,3.3,0,0,0,1.277-.138,3.848,3.848,0,0,0,.115-1.493c0-.209,0-.438,0-.689,0-.284,0-.544,0-.774a4.169,4.169,0,0,0-.118-1.569A2.985,2.985,0,0,0,172.508,1225.584Zm.46,3.975h-3.061v-3.2h3.061Zm-2.061-1h1.061v-1.2h-1.061Z" transform="translate(-163.214 -1191.145)" fill="rgba(0,0,0,0)"/><path d="M174.22,1127.159c.862-.964,1.573-1.776,2.3-2.57.43-.466,1.02-.723,1.414-.119a1.45,1.45,0,0,1-.234,1.316c-.834.975-1.794,1.842-2.7,2.758a.964.964,0,0,1-1.561.047,13.273,13.273,0,0,1-1.584-1.647c-.2-.286-.03-.827-.029-1.252.4.016.881-.105,1.166.08A7.439,7.439,0,0,1,174.22,1127.159Z" transform="translate(-165.945 -1106.537)" fill="url(#a)"/><path d="M174.194,1129.467a1.552,1.552,0,0,1-1.1-.524c-.153-.155-.312-.3-.481-.461a8.014,8.014,0,0,1-1.159-1.253,1.661,1.661,0,0,1-.148-1.174,3.529,3.529,0,0,0,.031-.364l0-.518.518.021a3.165,3.165,0,0,0,.333-.011c.109-.007.222-.014.337-.014a1.358,1.358,0,0,1,.75.186,3.809,3.809,0,0,1,.9.94l.07.091.352-.4c.54-.608,1.051-1.182,1.564-1.739a1.721,1.721,0,0,1,1.213-.634,1.172,1.172,0,0,1,.988.582,1.911,1.911,0,0,1-.273,1.914c-.589.688-1.241,1.326-1.872,1.943-.28.274-.57.558-.848.84A1.657,1.657,0,0,1,174.194,1129.467Zm-1.916-2.8a7.216,7.216,0,0,0,1.016,1.086c.168.157.341.319.507.487a.661.661,0,0,0,.393.228.79.79,0,0,0,.457-.274c.285-.289.578-.575.861-.853.615-.6,1.252-1.225,1.812-1.879a1.166,1.166,0,0,0,.186-.731c-.051-.076-.1-.114-.141-.114a.841.841,0,0,0-.478.312c-.507.55-1.014,1.121-1.551,1.725-.238.268-.486.547-.747.839l-.383.429-.371-.439c-.178-.211-.328-.406-.461-.579a3.129,3.129,0,0,0-.65-.71.5.5,0,0,0-.2-.024c-.07,0-.147,0-.228.009A1.768,1.768,0,0,0,172.278,1126.665Z" transform="translate(-165.945 -1106.537)" fill="rgba(0,0,0,0)"/></g></svg>