<svg xmlns="http://www.w3.org/2000/svg" xmlns:xlink="http://www.w3.org/1999/xlink" width="63.001" height="62.896" viewBox="0 0 63.001 62.896"><defs><linearGradient id="a" x1="0.5" x2="0.5" y2="1" gradientUnits="objectBoundingBox"><stop offset="0" stop-color="#c5933b"/><stop offset="0.485" stop-color="#e4c882"/><stop offset="1" stop-color="#c5933b"/></linearGradient></defs><g transform="translate(0.5 0.5)"><path d="M-358.757,1018.97q4.632-3.959,9.262-7.919c.735-.629,1.422-1.324,2.205-1.885A1.627,1.627,0,0,1-346,1008.9c.276.1.5.7.517,1.089.058,1.527.024,3.058.024,4.872a56.364,56.364,0,0,1,6.808.061,53.369,53.369,0,0,1,6.5,1.605v-1.213q0-5.325,0-10.65c0-.643.051-1.321.839-1.361.879-.044.977.671.978,1.357,0,2.4,0,4.808,0,7.466.94-1.225,1.7-2.229,2.477-3.222a3.254,3.254,0,0,1,.81-.891c1.826-1.032,1.992-2.655,1.89-4.53-.127-2.333-.037-4.678-.028-7.017.006-1.56.158-1.7,1.755-1.7,1.049,0,2.1,0,3.147-.011a2.343,2.343,0,0,0,.406-.12l-7.88-8.858-8.01,8.988c1.556,0,2.83.03,4.1-.01.932-.029,1.336.385,1.331,1.29-.009,1.412.067,2.829-.046,4.232-.034.424-.572.808-.88,1.211-.3-.407-.8-.792-.847-1.225a36,36,0,0,1-.041-3.629c-1.686,0-3.248.046-4.805-.025a6.542,6.542,0,0,1-1.633-.515,5.586,5.586,0,0,1,.671-1.657c2.965-3.408,5.983-6.77,8.986-10.145.976-1.1,1.351-1.106,2.306-.035,3.061,3.431,6.131,6.854,9.157,10.317.324.371.642,1.1.482,1.442s-.91.569-1.413.592c-1.6.072-3.211.027-4.894.027v8.605c4.134-2.4,8.646-2.1,13.224-2.136,0-1.577-.043-3.062.026-4.542.022-.461.238-1.141.565-1.3a1.634,1.634,0,0,1,1.357.387c3.562,3.032,7.09,6.105,10.62,9.176,1,.866,1,1.262.005,2.131-3.494,3.05-6.99,6.1-10.519,9.11-.379.323-1.092.654-1.439.5s-.57-.9-.591-1.4c-.07-1.688-.027-3.381-.027-5.217-4.167-.048-8.4-.8-11.484,3.066a8.917,8.917,0,0,0-1.813,5.753c-.02,3.953-.006,7.907-.007,11.86a2.374,2.374,0,0,1-.034.956,5.65,5.65,0,0,1-.812,1.022c-.319-.343-.841-.647-.915-1.036a24.483,24.483,0,0,1-.134-2.651,15.075,15.075,0,0,0-14.858-14.309c-1.893-.075-3.793-.076-5.687-.025-1.174.032-1.6-.463-1.545-1.586.049-1,.01-2.012.01-3.345l-9.071,7.855,2.288,2.022c.5.44,1.052.914.481,1.613s-1.149.261-1.655-.18c-1.154-1.005-2.3-2.02-3.448-3.031Zm33.563,4.432c0-.918.01-1.917,0-2.915a10.149,10.149,0,0,1,10.2-10.459c1.734,0,3.467-.01,5.2,0,1.409,0,1.6.2,1.608,1.616.008,1.3,0,2.591,0,4.149l9.085-7.88-8.91-7.729c-.1.215-.159.283-.159.351-.01.887-.011,1.774-.015,2.661-.008,1.616-.137,1.751-1.706,1.76-1.854.011-3.711-.036-5.563.034a15.091,15.091,0,0,0-14.573,12.441,1.374,1.374,0,0,0,.229,1.038C-328.3,1020.123-326.758,1021.736-325.194,1023.4Z" transform="translate(358.757 -983.463)" fill="url(#a)"/><path d="M-324.2,1035.367l-.388-.417a4,4,0,0,0-.3-.276,1.893,1.893,0,0,1-.741-1.008,9.37,9.37,0,0,1-.113-1.707c0-.346,0-.673-.028-1a14.656,14.656,0,0,0-14.379-13.847c-1.007-.04-2.058-.06-3.123-.06-.818,0-1.67.012-2.53.035l-.118,0a1.949,1.949,0,0,1-1.49-.515,2.065,2.065,0,0,1-.45-1.6c.033-.664.026-1.334.018-2.111q0-.06,0-.121l-7.819,6.771.332.293,1.528,1.35.019.017a2.914,2.914,0,0,1,.747.86,1.264,1.264,0,0,1-.229,1.427,1.327,1.327,0,0,1-1.038.555,2.168,2.168,0,0,1-1.332-.674c-.82-.714-1.649-1.445-2.451-2.152l-1-.88-.17-.149v-1.425l2.6-2.224c2.241-1.915,4.558-3.895,6.835-5.844.237-.2.476-.419.707-.628a17.52,17.52,0,0,1,1.532-1.283,2.33,2.33,0,0,1,1.271-.406,1.4,1.4,0,0,1,.478.078c.6.217.83,1.148.845,1.54.042,1.11.036,2.237.029,3.43,0,.312,0,.631,0,.958.54-.006,1.081-.022,1.608-.037.682-.019,1.387-.039,2.077-.039a21.642,21.642,0,0,1,2.684.143,29.349,29.349,0,0,1,4.534,1.055c.458.132.927.267,1.4.4v-.563q0-1.363,0-2.726c0-2.6,0-5.282,0-7.923,0-.491,0-1.8,1.314-1.861l.1,0a1.262,1.262,0,0,1,1.2.712,2.657,2.657,0,0,1,.2,1.146c0,1.719,0,3.435,0,5.25q0,.368,0,.741c.568-.742,1.067-1.394,1.583-2.055.049-.063.1-.13.151-.2a2.722,2.722,0,0,1,.807-.817c1.508-.852,1.742-2.136,1.636-4.067-.094-1.719-.07-3.464-.048-5.151.008-.622.017-1.265.019-1.9,0-.807.036-1.409.434-1.792s.973-.405,1.82-.408l.876,0,1.674-.005-6.876-7.729-6.9,7.741.276,0c.407,0,.791,0,1.169,0,.6,0,1.084-.006,1.53-.02l.105,0a1.746,1.746,0,0,1,1.289.451,1.794,1.794,0,0,1,.452,1.343c0,.433,0,.876.008,1.3.012.97.024,1.973-.055,2.964a1.984,1.984,0,0,1-.682,1.141,4.24,4.24,0,0,0-.3.333l-.407.533-.395-.543a4.375,4.375,0,0,0-.286-.337,2.1,2.1,0,0,1-.654-1.13,20.988,20.988,0,0,1-.057-2.575c0-.2.007-.4.01-.6l-.918.006c-.463,0-.9.007-1.342.007-.809,0-1.465-.013-2.065-.04a3.884,3.884,0,0,1-1.289-.357c-.167-.068-.324-.132-.479-.183l-.5-.165.19-.49c.061-.157.112-.33.166-.514a3.294,3.294,0,0,1,.594-1.291c2.32-2.667,4.711-5.349,7.023-7.942l1.967-2.208c.548-.616,1-1,1.545-1s.978.368,1.508.963l1.537,1.722c2.508,2.809,5.1,5.714,7.623,8.6a2.186,2.186,0,0,1,.557,1.985c-.3.641-1.338.854-1.842.877-.628.028-1.315.041-2.164.041-.449,0-.909,0-1.354-.007l-.9-.006v7.265a15.973,15.973,0,0,1,4.9-1.491,39.7,39.7,0,0,1,5.809-.3h1.519c0-.274,0-.545-.006-.811-.009-1.121-.017-2.18.033-3.257a2.12,2.12,0,0,1,.851-1.725,1.074,1.074,0,0,1,.463-.1,2.475,2.475,0,0,1,1.433.553c3.37,2.869,6.764,5.821,10.047,8.677l.578.5c.553.481.921.91.921,1.443s-.365.962-.915,1.442c-3.884,3.391-7.126,6.215-10.523,9.114a2.765,2.765,0,0,1-1.554.659,1.013,1.013,0,0,1-.411-.081c-.678-.3-.871-1.429-.888-1.839-.051-1.225-.043-2.438-.034-3.722,0-.335,0-.677.006-1.024-.4-.009-.792-.022-1.179-.036-.659-.022-1.34-.045-2-.045-3.032,0-5.453.5-7.416,2.967a8.352,8.352,0,0,0-1.7,5.444c-.014,2.741-.011,5.529-.009,8.225q0,1.816,0,3.633c0,.075.007.163.015.255a1.7,1.7,0,0,1-.1.92,3.6,3.6,0,0,1-.631.845c-.087.1-.17.186-.245.277Zm-19.072-19.313c1.079,0,2.143.02,3.163.061a16.913,16.913,0,0,1,5.859,1.264,15.227,15.227,0,0,1,4.732,3.1,15.22,15.22,0,0,1,3.267,4.612,16.879,16.879,0,0,1,1.479,5.8c.028.36.029.721.031,1.07a8.493,8.493,0,0,0,.1,1.526c.017.091.24.288.388.417a2.431,2.431,0,0,0,.4-.528,1.276,1.276,0,0,0,0-.4c-.009-.109-.018-.221-.018-.338q0-1.816,0-3.631c0-2.7-.005-5.487.009-8.231a9.3,9.3,0,0,1,1.923-6.062c2.343-2.939,5.325-3.344,8.2-3.344.674,0,1.363.023,2.031.046.542.018,1.1.037,1.651.044l.494.006v.494c0,.518,0,1.028-.007,1.522-.009,1.272-.017,2.473.033,3.674a1.9,1.9,0,0,0,.295.962h.006a1.842,1.842,0,0,0,.9-.42c3.393-2.895,6.632-5.717,10.514-9.106.5-.435.573-.618.573-.688s-.075-.253-.577-.69l-.578-.5c-3.28-2.854-6.673-5.8-10.039-8.67a1.5,1.5,0,0,0-.784-.315l-.034,0a1.644,1.644,0,0,0-.281.865c-.049,1.05-.041,2.1-.032,3.2,0,.428.007.871.007,1.317v.5l-.5,0c-.284,0-.585,0-.976,0h-1.048c-4.193,0-7.661.152-10.952,2.066l-.751.437v-9.974h.5c.475,0,.948,0,1.406.007s.9.007,1.347.007c.833,0,1.507-.013,2.119-.04a1.842,1.842,0,0,0,.979-.3,1.726,1.726,0,0,0-.4-.9c-2.517-2.881-5.109-5.784-7.616-8.591L-327,984.591c-.372-.417-.628-.628-.762-.628s-.406.223-.8.663l-1.967,2.208c-2.31,2.591-4.7,5.27-7.014,7.933a2.567,2.567,0,0,0-.39.917l-.034.114.073.03a3.12,3.12,0,0,0,.957.284c.584.027,1.226.039,2.019.039.439,0,.874,0,1.334-.007s.943-.008,1.429-.008h.5v.5c0,.388-.007.762-.013,1.124a20.252,20.252,0,0,0,.051,2.453,1.437,1.437,0,0,0,.36.518c.156-.164.363-.386.371-.491.076-.945.064-1.925.052-2.872-.005-.433-.011-.881-.008-1.323a.9.9,0,0,0-.161-.632.822.822,0,0,0-.58-.156h-.074c-.457.014-.953.021-1.561.021-.38,0-.766,0-1.175,0-.441,0-.9-.006-1.381-.006h-1.115l9.125-10.24,8.773,9.861-.749.227c-.092.028-.159.051-.212.069a1,1,0,0,1-.336.072c-.758,0-1.528.007-2.273.008l-.876,0a2.959,2.959,0,0,0-1.129.128,2.7,2.7,0,0,0-.128,1.076c0,.635-.011,1.281-.019,1.9-.022,1.671-.045,3.4.047,5.084.1,1.775.019,3.771-2.143,4.992a2.008,2.008,0,0,0-.493.539c-.054.074-.11.15-.168.225-.545.7-1.073,1.387-1.683,2.185l-.792,1.034-.9,1.168v-1.473c0-.758,0-1.495,0-2.217,0-1.816,0-3.53,0-5.249,0-.86-.187-.86-.4-.86h-.051c-.212.011-.366.018-.364.861,0,2.642,0,5.328,0,7.925q0,1.363,0,2.726v1.857l-.624-.16c-.7-.179-1.387-.378-2.053-.57a28.617,28.617,0,0,0-4.379-1.023,20.676,20.676,0,0,0-2.562-.136c-.675,0-1.373.02-2.048.039-.7.02-1.418.04-2.137.04h-.5v-.5c0-.51,0-1,.005-1.467.007-1.182.013-2.3-.029-3.387a1.349,1.349,0,0,0-.218-.647.523.523,0,0,0-.105-.009,1.341,1.341,0,0,0-.689.219,16.5,16.5,0,0,0-1.443,1.211c-.236.214-.48.434-.728.647-2.277,1.95-4.595,3.93-6.836,5.845l-2.252,1.924v.512l.83.732c.8.706,1.629,1.436,2.447,2.148.172.15.491.428.675.428.091,0,.194-.1.264-.188.206-.252.233-.341-.405-.9l-.019-.017-1.528-1.351-1.188-1.05,10.331-8.946v1.094c0,.429,0,.821.008,1.2.008.792.015,1.477-.019,2.17a1.2,1.2,0,0,0,.176.859,1.069,1.069,0,0,0,.765.2h.091C-344.96,1016.066-344.1,1016.054-343.273,1016.054Zm18.579,8.61-.864-.92q-.566-.6-1.128-1.2c-1.206-1.278-2.345-2.485-3.482-3.747a1.85,1.85,0,0,1-.349-1.466,15.6,15.6,0,0,1,15.045-12.848c.727-.027,1.507-.04,2.528-.04q.609,0,1.218,0c.611,0,1.222.006,1.832,0a2.814,2.814,0,0,0,1.083-.125,3.058,3.058,0,0,0,.127-1.137q0-.36,0-.719c0-.637.005-1.3.012-1.945a.809.809,0,0,1,.121-.388c.024-.046.052-.1.085-.169l.28-.6,9.847,8.541-10.348,8.976v-1.1c0-.494,0-.962,0-1.412,0-.952,0-1.851,0-2.733a2.391,2.391,0,0,0-.134-.989c-.127-.127-.744-.13-.976-.13q-.809,0-1.618,0c-.951,0-1.918,0-2.854,0l-.726,0a9.856,9.856,0,0,0-6.958,2.9,9.637,9.637,0,0,0-2.744,7.051c.008.692.006,1.38,0,2.045,0,.3,0,.591,0,.876Zm11.75-19.219c-1.009,0-1.777.012-2.491.039a14.615,14.615,0,0,0-14.1,12.035.934.934,0,0,0,.109.61c1.13,1.254,2.265,2.457,3.466,3.73l.269.285c0-.543,0-1.1,0-1.652a11.21,11.21,0,0,1,.8-4.366,10.353,10.353,0,0,1,2.235-3.4,10.863,10.863,0,0,1,7.668-3.2l.725,0c.936,0,1.9,0,2.856,0q.811,0,1.622,0a2.3,2.3,0,0,1,1.682.425,2.341,2.341,0,0,1,.425,1.688c.006.887,0,1.787,0,2.741q0,.156,0,.314l7.821-6.784-7.812-6.776c0,.45-.005.9-.007,1.342q0,.36,0,.72c0,.854-.035,1.442-.408,1.828s-.957.425-1.8.429c-.614,0-1.228,0-1.842,0Q-312.337,1005.446-312.944,1005.445Z" transform="translate(358.757 -983.463)" fill="rgba(0,0,0,0)"/><path d="M-299.306,1242.765a7.087,7.087,0,0,1-.494-1.771c-.045-3.79,0-7.581-.031-11.371-.042-4.454-2.511-7.747-6.725-8.492a39.208,39.208,0,0,0-6.573-.063c0,1.592.042,3.27-.024,4.942a6.627,6.627,0,0,1-.5,1.635,6.225,6.225,0,0,1-1.663-.661c-1.359-1.074-2.644-2.241-3.946-3.386-.534-.469-1.317-.968-.653-1.772.68-.824,1.28-.128,1.828.341.943.808,1.884,1.617,3.07,2.636,0-1.033,0-1.811,0-2.589-.018-3.557-.2-3.153,3.212-3.163,1.049,0,2.1.028,3.145,0A10.221,10.221,0,0,1-298,1229.671c-.058,3.225-.009,6.452-.009,9.678,0,.438,0,.875,0,1.4h5.145c0-1.154,0-2.312,0-3.471a15.694,15.694,0,0,1,.07-2.532c.058-.345.578-.612.888-.915.279.291.792.575.8.873.065,2.377.052,4.757.011,7.135-.005.311-.306.617-.47.925Z" transform="translate(326.422 -1180.869)" fill="url(#a)"/><path d="M-291.259,1243.265h-8.423l-.105-.36c-.05-.17-.113-.343-.181-.527A4.135,4.135,0,0,1-300.3,1241c-.024-2-.021-4.04-.019-6.009,0-1.759,0-3.577-.012-5.364-.04-4.321-2.4-7.313-6.313-8a13.081,13.081,0,0,0-2.3-.173c-.65,0-1.3.027-1.995.057-.55.023-1.115.047-1.689.056,0,.282,0,.566.005.844.009,1.181.017,2.4-.031,3.623a3.923,3.923,0,0,1-.344,1.287c-.066.167-.129.326-.178.481l-.161.5-.493-.188c-.159-.06-.33-.111-.511-.165a3.689,3.689,0,0,1-1.284-.571c-1.113-.879-2.189-1.832-3.229-2.752l-.737-.651c-.054-.048-.111-.1-.169-.144a2.884,2.884,0,0,1-.777-.862,1.275,1.275,0,0,1,.237-1.46,1.35,1.35,0,0,1,1.045-.564,2.1,2.1,0,0,1,1.332.7c.054.048.108.1.162.142.672.576,1.343,1.152,2.1,1.8l.143.123c0-.542,0-1.02,0-1.5q0-.269,0-.508c-.012-1.557-.017-2.268.446-2.736a2.377,2.377,0,0,1,1.778-.431c.169,0,.355,0,.559,0,.24,0,.513.005.809.005h.261c.323,0,.651,0,.967.005s.64.006.958.006c.408,0,.747,0,1.066-.014.114,0,.23-.005.345-.005a10.966,10.966,0,0,1,7.792,3.223,10.887,10.887,0,0,1,3.043,7.916c-.04,2.213-.029,4.466-.019,6.645,0,.991.01,2.016.01,3.024,0,.286,0,.572,0,.882v.019h4.145q0-.274,0-.548c0-.794,0-1.615,0-2.424,0-.218,0-.444-.008-.663a10.415,10.415,0,0,1,.085-1.951,1.647,1.647,0,0,1,.743-.95,3.572,3.572,0,0,0,.289-.24l.361-.352.349.363a3.26,3.26,0,0,0,.268.234,1.406,1.406,0,0,1,.672.972c.056,2.064.06,4.338.011,7.157a1.682,1.682,0,0,1-.373.9c-.06.089-.117.173-.156.247Zm-7.686-1h7.106l.048-.072a1.365,1.365,0,0,0,.2-.362c.049-2.818.046-5-.01-7.06a2.556,2.556,0,0,0-.306-.277l0,0-.017.013a1.9,1.9,0,0,0-.372.337,9.593,9.593,0,0,0-.069,1.754c0,.225.009.457.008.687,0,.806,0,1.626,0,2.419q0,.525,0,1.049v.5H-298.5v-1.019c0-.31,0-.6,0-.882,0-1.006,0-2.03-.01-3.019-.01-2.185-.021-4.444.019-6.668a9.9,9.9,0,0,0-2.756-7.2,9.96,9.96,0,0,0-7.078-2.924c-.1,0-.21,0-.314,0-.33.01-.678.015-1.1.015-.323,0-.651,0-.967-.006s-.64-.005-.959-.005h-.261c-.3,0-.577,0-.82-.005-.2,0-.382,0-.548,0-.3,0-.933,0-1.068.135a5.129,5.129,0,0,0-.156,2.023q0,.241,0,.511c0,.522,0,1.04,0,1.64,0,.3,0,.61,0,.952v1.089l-1.794-1.541c-.759-.652-1.43-1.229-2.1-1.8-.058-.05-.117-.1-.176-.155-.213-.189-.5-.448-.667-.448-.094,0-.212.126-.274.2-.221.268-.251.361.413.921.063.053.125.106.185.158l.739.653c1.03.912,2.1,1.855,3.187,2.717a2.936,2.936,0,0,0,.95.4l.1.03.027-.069a3.159,3.159,0,0,0,.275-.959c.047-1.2.039-2.406.03-3.576,0-.444-.007-.9-.007-1.347v-.5h.5c.726,0,1.449-.03,2.148-.06s1.366-.057,2.037-.057a14.046,14.046,0,0,1,2.475.188,8.327,8.327,0,0,1,5.235,3.04,9.686,9.686,0,0,1,1.9,5.94c.017,1.792.014,3.613.012,5.374,0,1.966-.005,4,.019,6a3.367,3.367,0,0,0,.271,1.045C-299,1242.109-298.972,1242.187-298.944,1242.265Z" transform="translate(326.422 -1180.869)" fill="rgba(0,0,0,0)"/></g></svg>